<?xml version="1.0" encoding="utf-8"?>
<!-- Generator: Adobe Illustrator 14.0.0, SVG Export Plug-In . SVG Version: 6.00 Build 43363)  -->
<!DOCTYPE svg PUBLIC "-//W3C//DTD SVG 1.1 Tiny//EN" "http://www.w3.org/Graphics/SVG/1.1/DTD/svg11-tiny.dtd">
<svg version="1.1" baseProfile="tiny" id="Layer_1" xmlns="http://www.w3.org/2000/svg" xmlns:xlink="http://www.w3.org/1999/xlink"
	 x="0px" y="0px" width="24px" height="24px" viewBox="0 0 24 24" xml:space="preserve">
<path fill="#0066B0" stroke="#0066B0" stroke-width="0.4527" d="M8.352,14.736c2.038-3.33,3.524-5.526,5.63-7.007
	c0,0,2.704-2.072,3.859-2.245c1.152-0.172,1.131,0.542,0.797,0.912c-0.332,0.371-4.958,4.608-7.205,9.327
	c-2.172,4.566-2.35,4.197-2.883,4.072c-0.532-0.123-1.676-2.158-2.35-3.184c-0.844-1.285-1.552-2.443-3.039-4.057
	c-0.469-0.512-0.751-1.061-0.154-1.334C3.51,10.996,5.757,12.246,8.352,14.736z"/>
</svg>
