<?xml version="1.0" encoding="utf-8"?>
<!-- Generator: Adobe Illustrator 14.0.0, SVG Export Plug-In . SVG Version: 6.00 Build 43363)  -->
<!DOCTYPE svg PUBLIC "-//W3C//DTD SVG 1.1 Tiny//EN" "http://www.w3.org/Graphics/SVG/1.1/DTD/svg11-tiny.dtd">
<svg version="1.1" baseProfile="tiny" id="Layer_1" xmlns="http://www.w3.org/2000/svg" xmlns:xlink="http://www.w3.org/1999/xlink"
	 x="0px" y="0px" width="24px" height="24px" viewBox="0 0 24 24" xml:space="preserve">
<g>
	<polygon fill="#FFFFFF" stroke="#FFFFFF" stroke-linecap="round" stroke-linejoin="round" points="14.187,4.142 7.163,15.27 
		6.825,19.376 10.526,17.386 17.541,6.272 	"/>
	<path fill="#FFFFFF" stroke="#FFFFFF" d="M17.116,6.944c-0.111,0.178-0.351,0.226-0.536,0.111l-2.692-1.701
		c-0.183-0.116-0.243-0.353-0.131-0.531l0.755-1.195c0.11-0.177,0.352-0.226,0.534-0.109l2.693,1.7
		c0.184,0.116,0.244,0.354,0.132,0.53L17.116,6.944z"/>
	<polygon fill="#0066B0" points="12.571,6.703 7.163,15.27 6.825,19.376 10.526,17.386 15.926,8.833 	"/>
	<path fill="#0066B0" d="M17.2,6.823c-0.111,0.178-0.351,0.226-0.536,0.111l-2.692-1.701c-0.183-0.116-0.243-0.353-0.131-0.531
		l0.755-1.195c0.11-0.177,0.352-0.226,0.534-0.109l2.693,1.7c0.184,0.116,0.244,0.354,0.132,0.53L17.2,6.823z"/>
	
		<rect x="13.525" y="5.238" transform="matrix(0.8457 0.5336 -0.5336 0.8457 5.4688 -7.3877)" fill="#0066B0" width="3.973" height="1.053"/>
	
		<line fill="#437FC0" stroke="#FFFFFF" stroke-width="0.4871" stroke-linecap="round" x1="10.526" y1="17.386" x2="7.163" y2="15.27"/>
	
		<rect x="12.755" y="6.528" transform="matrix(0.8458 0.5335 -0.5335 0.8458 5.9996 -6.7877)" fill="#0066B0" width="3.973" height="0.913"/>
</g>
</svg>
