<?xml version="1.0" encoding="UTF-8"?>
<!DOCTYPE svg PUBLIC "-//W3C//DTD SVG 1.1//EN" "http://www.w3.org/Graphics/SVG/1.1/DTD/svg11.dtd">
<!-- Generator: Adobe Illustrator 23.0.4, SVG Export Plug-In . SVG Version: 6.00 Build 0)  --><svg xmlns="http://www.w3.org/2000/svg" version="1.1" id="Layer_1" x="0px" y="0px" viewBox="0 0 500 500" style="enable-background:new 0 0 500 500;" xml:space="preserve" width="50" height="50">
<polygon style="fill:#D92029;" points="241.24,246.21 259.95,246.21 259.95,283.28 296.86,283.28 296.86,301.99 259.95,301.99   259.95,339.05 241.24,339.05 241.24,301.99 204.34,301.99 204.34,283.28 241.24,283.28 "/>
<polygon style="fill:#D92029;" points="122.99,303.82 122.99,400.51 359.09,400.51 359.09,373.28 150.23,373.28 150.23,303.82   122.99,303.82 "/>
<polygon style="fill:#D92029;" points="345.89,349.33 345.89,424.46 405.49,386.9 "/>
<polygon style="fill:#D92029;" points="99.04,322.02 174.18,322.02 136.62,262.42 "/>
<polygon points="121.32,118.73 121.32,215.44 357.42,215.44 357.42,188.2 148.55,188.2 148.56,118.73 121.32,118.73 "/>
<polygon points="344.21,164.25 344.21,239.38 403.82,201.83 "/>
<polygon points="97.37,136.95 172.5,136.95 134.94,77.34 "/>
</svg>