<?xml version="1.0" encoding="UTF-8"?>
<!DOCTYPE svg PUBLIC "-//W3C//DTD SVG 1.1//EN" "http://www.w3.org/Graphics/SVG/1.1/DTD/svg11.dtd">
<!-- Generator: Adobe Illustrator 23.0.4, SVG Export Plug-In . SVG Version: 6.00 Build 0)  --><svg xmlns="http://www.w3.org/2000/svg" version="1.1" id="Layer_1" x="0px" y="0px" viewBox="0 0 500 500" style="enable-background:new 0 0 500 500;" xml:space="preserve" width="50" height="50">
<polygon style="fill:#D92029;" points="297.81,217.29 319.07,217.29 319.07,259.41 361.02,259.41 361.02,280.67 319.07,280.67 319.07,322.8   297.81,322.8 297.81,280.67 255.87,280.67 255.87,259.41 297.81,259.41 "/>
<polygon style="fill:#D92029;" points="248.11,167.21 217.19,105.96 186.25,167.21 206,167.21 206,394.04 228.23,394.04 228.23,167.21 "/>
<polygon points="420.16,393.19 358.89,362.27 358.89,381.9 143.82,381.9 143.82,167.21 163.72,167.21 132.77,105.96 101.88,167.21   121.58,167.21 121.58,404.14 358.89,404.14 358.89,424.16 "/>
</svg>