<?xml version="1.0" encoding="UTF-8"?>
<!DOCTYPE svg PUBLIC "-//W3C//DTD SVG 1.1//EN" "http://www.w3.org/Graphics/SVG/1.1/DTD/svg11.dtd">
<!-- Generator: Adobe Illustrator 23.0.4, SVG Export Plug-In . SVG Version: 6.00 Build 0)  --><svg xmlns="http://www.w3.org/2000/svg" version="1.1" id="Layer_1" x="0px" y="0px" viewBox="0 0 500 500" style="enable-background:new 0 0 500 500;" xml:space="preserve" width="50" height="50">
<polygon style="fill:#D92029;" points="324.54,323.53 324.54,317.32 181.67,317.32 181.67,180.67 318.32,180.67 318.32,323.53   324.54,323.53 324.54,317.32 324.54,323.53 330.75,323.53 330.75,168.25 169.25,168.25 169.25,329.74 330.75,329.74 330.75,323.53   "/>
<polygon style="fill:#D92029;" points="324.54,323.53 327.94,323.53 327.94,317.32 327.94,313.91 185.08,313.91 185.08,184.07   314.92,184.07 314.92,326.93 327.94,326.93 327.94,317.32 321.13,317.32 321.13,323.53 321.13,326.93 334.15,326.93 334.15,164.84   165.85,164.84 165.85,333.14 334.15,333.14 334.15,320.12 324.54,320.12 324.54,323.53 327.94,323.53 324.54,323.53 324.54,326.93   327.34,326.93 327.34,329.74 330.75,329.74 330.75,326.33 172.66,326.33 172.66,171.65 327.34,171.65 327.34,320.12 324.54,320.12   324.54,323.53 327.94,323.53 327.94,317.32 321.13,317.32 321.13,320.12 318.32,320.12 318.32,323.53 321.73,323.53 321.73,177.26   178.27,177.26 178.27,320.72 321.13,320.72 321.13,323.53 321.13,326.93 324.54,326.93 "/>
<polygon points="274.84,273.84 274.84,267.63 231.37,267.63 231.37,230.36 268.63,230.36 268.63,273.84 274.84,273.84   274.84,267.63 274.84,273.84 281.05,273.84 281.05,217.94 218.95,217.94 218.95,280.05 281.05,280.05 281.05,273.84 "/>
<polygon points="274.84,273.84 278.25,273.84 278.25,267.63 278.25,264.23 234.77,264.23 234.77,233.76 265.23,233.76   265.23,277.24 278.25,277.24 278.25,267.63 271.44,267.63 271.44,273.84 271.44,277.24 284.46,277.24 284.46,214.53 215.54,214.53   215.54,283.45 284.46,283.45 284.46,270.44 274.84,270.44 274.84,273.84 278.25,273.84 274.84,273.84 274.84,277.24 277.65,277.24   277.65,280.05 281.05,280.05 281.05,276.65 222.35,276.65 222.35,221.34 277.65,221.34 277.65,270.44 274.84,270.44 274.84,273.84   278.25,273.84 278.25,267.63 271.44,267.63 271.44,270.44 268.63,270.44 268.63,273.84 272.04,273.84 272.04,226.95 227.96,226.95   227.96,271.03 271.44,271.03 271.44,273.84 271.44,277.24 274.84,277.24 "/>
<polygon style="fill:#D92029;" points="119.56,149.61 119.56,118.55 150.62,118.55 150.62,106.13 107.14,106.13 107.14,149.61 "/>
<polygon style="fill:#D92029;" points="119.56,149.61 122.97,149.61 122.97,121.96 154.03,121.96 154.03,102.73 103.73,102.73   103.73,153.01 122.97,153.01 122.97,149.61 119.56,149.61 119.56,146.21 110.54,146.21 110.54,109.54 147.22,109.54 147.22,115.15   116.16,115.15 116.16,149.61 119.56,149.61 119.56,146.21 "/>
<polygon style="fill:#D92029;" points="392.86,149.61 392.86,106.13 349.38,106.13 349.38,118.55 380.44,118.55 380.44,149.61   392.86,149.61 "/>
<polygon style="fill:#D92029;" points="392.86,149.61 396.26,149.61 396.26,102.73 345.97,102.73 345.97,121.96 377.03,121.96   377.03,153.01 392.86,153.01 392.86,146.21 392.86,146.21 392.86,149.61 396.26,149.61 392.86,149.61 392.86,153.02 392.86,153.02   392.86,146.21 383.84,146.21 383.84,115.15 352.78,115.15 352.78,109.54 389.45,109.54 389.45,153.02 392.86,153.02 "/>
<polygon style="fill:#D92029;" points="107.14,342.17 107.14,385.64 150.62,385.64 150.62,373.22 119.56,373.22 119.56,342.17 "/>
<polygon style="fill:#D92029;" points="107.14,342.17 103.73,342.17 103.73,389.05 154.03,389.05 154.03,369.82 122.97,369.82   122.97,338.76 103.73,338.76 103.73,342.17 107.14,342.17 107.14,345.57 116.16,345.57 116.16,376.63 147.22,376.63 147.22,382.24   110.54,382.24 110.54,342.17 107.14,342.17 107.14,345.57 "/>
<polygon style="fill:#D92029;" points="380.44,342.17 380.44,373.22 349.38,373.22 349.38,385.64 392.86,385.64 392.86,342.17 "/>
<polygon style="fill:#D92029;" points="380.44,342.17 377.03,342.17 377.03,369.81 345.97,369.82 345.97,389.05 396.26,389.05   396.26,338.76 377.03,338.76 377.03,342.17 380.44,342.17 380.44,345.57 389.45,345.57 389.45,382.24 352.78,382.24 352.78,376.63   383.84,376.62 383.84,342.17 380.44,342.17 380.44,345.57 "/>
</svg>