<?xml version="1.0" encoding="UTF-8"?>
<!DOCTYPE svg PUBLIC "-//W3C//DTD SVG 1.1//EN" "http://www.w3.org/Graphics/SVG/1.1/DTD/svg11.dtd">
<!-- Generator: Adobe Illustrator 23.0.4, SVG Export Plug-In . SVG Version: 6.00 Build 0)  --><svg xmlns="http://www.w3.org/2000/svg" version="1.1" id="Layer_1" x="0px" y="0px" viewBox="0 0 500 500" style="enable-background:new 0 0 500 500;" xml:space="preserve" width="50" height="50">
<g>
	<polygon points="57.27,109.35 57.27,63.75 102.87,63.75 102.87,45.51 39.02,45.51 39.02,109.35  "/>
	<polygon points="57.27,109.35 62.27,109.35 62.27,68.74 107.87,68.74 107.87,40.51 34.02,40.51 34.02,114.35 62.27,114.35    62.27,109.35 57.27,109.35 57.27,104.35 44.02,104.35 44.02,50.5 97.87,50.5 97.87,58.75 52.27,58.75 52.27,109.35 57.27,109.35    57.27,104.35  "/>
</g>
<polygon points="39.02,392.1 39.02,455.95 102.87,455.95 102.87,437.71 57.27,437.71 57.27,392.1 "/>
<polygon points="39.02,392.1 34.02,392.1 34.02,460.95 107.87,460.95 107.87,432.71 62.27,432.71 62.27,387.11 34.02,387.11   34.02,392.1 39.02,392.1 39.02,397.1 52.27,397.1 52.27,442.71 97.87,442.71 97.87,450.95 44.02,450.95 44.02,392.1 39.02,392.1   39.02,397.1 "/>
<polygon points="440.34,392.1 440.34,437.7 394.74,437.71 394.74,455.95 458.58,455.95 458.58,392.1 "/>
<polygon points="440.34,392.1 435.34,392.1 435.34,432.7 389.74,432.71 389.74,460.95 463.58,460.95 463.58,387.11 435.34,387.11   435.34,392.1 440.34,392.1 440.34,397.1 453.58,397.1 453.58,450.95 399.73,450.95 399.73,442.71 445.34,442.7 445.34,392.1   440.34,392.1 440.34,397.1 "/>
<g>
	<polygon style="fill:#D92029;" points="269.33,247.29 269.33,242.81 166.32,242.81 166.32,144.28 264.85,144.28 264.85,247.29    269.33,247.29 269.33,242.81 269.33,247.29 273.81,247.29 273.81,135.32 157.36,135.32 157.36,251.77 273.81,251.77 273.81,247.29     "/>
	<polygon style="fill:#D92029;" points="269.33,247.29 271.79,247.29 271.79,242.81 271.79,240.36 168.77,240.36 168.77,146.73    262.4,146.73 262.4,249.74 271.79,249.74 271.79,242.81 266.88,242.81 266.88,247.29 266.88,249.74 276.27,249.74 276.27,132.87    154.91,132.87 154.91,254.22 276.27,254.22 276.27,244.83 269.33,244.83 269.33,247.29 271.79,247.29 269.33,247.29 269.33,249.74    271.36,249.74 271.36,251.77 273.81,251.77 273.81,249.31 159.82,249.31 159.82,137.77 271.36,137.77 271.36,244.83 269.33,244.83    269.33,247.29 271.79,247.29 271.79,242.81 266.88,242.81 266.88,244.83 264.85,244.83 264.85,247.29 267.31,247.29 267.31,141.82    163.86,141.82 163.86,245.26 266.88,245.26 266.88,247.29 266.88,249.74 269.33,249.74  "/>
	<polygon points="233.5,211.46 233.5,206.98 202.15,206.98 202.15,180.1 229.02,180.1 229.02,211.46 233.5,211.46 233.5,206.98    233.5,211.46 237.98,211.46 237.98,171.15 193.19,171.15 193.19,215.94 237.98,215.94 237.98,211.46  "/>
	<polygon points="233.5,211.46 235.96,211.46 235.96,206.98 235.96,204.53 204.6,204.53 204.6,182.56 226.57,182.56 226.57,213.91    235.96,213.91 235.96,206.98 231.05,206.98 231.05,211.46 231.05,213.91 240.43,213.91 240.43,168.69 190.74,168.69 190.74,218.39    240.43,218.39 240.43,209.01 233.5,209.01 233.5,211.46 235.96,211.46 233.5,211.46 233.5,213.91 235.52,213.91 235.52,215.94    237.98,215.94 237.98,213.48 195.65,213.48 195.65,173.6 235.52,173.6 235.52,209.01 233.5,209.01 233.5,211.46 235.96,211.46    235.96,206.98 231.05,206.98 231.05,209 229.02,209.01 229.02,211.46 231.48,211.46 231.48,177.65 199.7,177.65 199.7,209.44    231.05,209.44 231.05,211.46 231.05,213.91 233.5,213.91  "/>
</g>
<g>
	<polygon style="fill:#D92029;" points="332.84,359.02 332.84,354.54 229.83,354.54 229.83,256.01 328.36,256.01 328.36,359.02    332.84,359.02 332.84,354.54 332.84,359.02 337.32,359.02 337.32,247.05 220.87,247.05 220.87,363.5 337.32,363.5 337.32,359.02     "/>
	<polygon style="fill:#D92029;" points="332.84,359.02 335.3,359.02 335.3,354.54 335.3,352.09 232.28,352.09 232.28,258.46 325.9,258.46    325.9,361.47 335.3,361.47 335.3,354.54 330.39,354.54 330.39,359.02 330.39,361.47 339.77,361.47 339.77,244.6 218.41,244.6    218.41,365.95 339.77,365.95 339.77,356.56 332.84,356.56 332.84,359.02 335.3,359.02 332.84,359.02 332.84,361.47 334.87,361.47    334.87,363.5 337.32,363.5 337.32,361.04 223.32,361.04 223.32,249.51 334.86,249.51 334.86,356.56 332.84,356.56 332.84,359.02    335.3,359.02 335.3,354.54 330.39,354.54 330.39,356.56 328.36,356.56 328.36,359.02 330.81,359.02 330.81,253.55 227.37,253.55    227.37,357 330.39,357 330.39,359.02 330.39,361.47 332.84,361.47  "/>
	<polygon points="297.01,323.19 297.01,318.71 265.66,318.71 265.66,291.84 292.53,291.84 292.53,323.19 297.01,323.19    297.01,318.71 297.01,323.19 301.49,323.19 301.49,282.88 256.7,282.88 256.7,327.67 301.49,327.67 301.49,323.19  "/>
	<polygon points="297.01,323.19 299.46,323.19 299.46,318.71 299.46,316.26 268.11,316.26 268.11,294.29 290.08,294.29    290.08,325.65 299.46,325.65 299.46,318.71 294.55,318.71 294.55,323.19 294.55,325.65 303.94,325.65 303.94,280.43 254.25,280.43    254.25,330.12 303.94,330.12 303.94,320.74 297.01,320.74 297.01,323.19 299.46,323.19 297.01,323.19 297.01,325.65 299.03,325.65    299.03,327.67 301.49,327.67 301.49,325.21 259.16,325.21 259.16,285.33 299.03,285.33 299.03,320.74 297.01,320.74 297.01,323.19    299.46,323.19 299.46,318.71 294.55,318.71 294.55,320.74 292.53,320.74 292.53,323.19 294.99,323.19 294.99,289.38 263.2,289.38    263.2,321.17 294.55,321.17 294.55,323.19 294.55,325.65 297.01,325.65  "/>
</g>
<g>
	<polygon points="439.9,108.38 439.9,62.77 394.29,62.77 394.29,44.53 458.14,44.53 458.14,108.38  "/>
	<polygon points="439.9,108.38 434.9,108.38 434.9,67.77 389.29,67.77 389.29,39.53 463.14,39.53 463.14,113.38 434.9,113.38    434.9,108.38 439.9,108.38 439.9,103.38 453.15,103.38 453.15,49.53 399.29,49.53 399.29,57.77 444.89,57.77 444.89,108.38    439.9,108.38 439.9,103.38  "/>
</g>
<g>
	<defs>
		<rect id="SVGID_19_" x="31.4" y="128.79" width="124.53" height="128.55"/>
	</defs>
	<clipPath id="SVGID_2_">
		<use xmlns:xlink="http://www.w3.org/1999/xlink" style="overflow:visible;" xlink:href="#SVGID_19_"/>
	</clipPath>
	<polygon style="clip-path:url(#SVGID_2_);fill:#D92029;stroke:#D92029;stroke-width:0.5;stroke-miterlimit:10;" points="   96.15,133.56 83.17,146.54 120.72,184.1 25.53,184.02 25.5,202.36 120.87,202.45 83.17,240.14 96.15,253.12 155.93,193.35  "/>
</g>
<g>
	<defs>
		
			<rect id="SVGID_21_" x="339.61" y="240.98" transform="matrix(-1 -4.490154e-11 4.490154e-11 -1 803.7556 610.5172)" width="124.53" height="128.55"/>
	</defs>
	<clipPath id="SVGID_4_">
		<use xmlns:xlink="http://www.w3.org/1999/xlink" style="overflow:visible;" xlink:href="#SVGID_21_"/>
	</clipPath>
	<polygon style="clip-path:url(#SVGID_4_);fill:#D92029;stroke:#D92029;stroke-width:0.5;stroke-miterlimit:10;" points="   399.4,245.76 412.38,258.74 374.82,296.29 470.02,296.21 470.04,314.56 374.68,314.64 412.37,352.34 399.39,365.32 339.61,305.54     "/>
</g>
</svg>