<?xml version="1.0" encoding="UTF-8"?>
<!-- Generator: Adobe Illustrator 16.2.1, SVG Export Plug-In . SVG Version: 6.00 Build 0)  --><svg xmlns="http://www.w3.org/2000/svg" xmlns:inkscape="http://www.inkscape.org/namespaces/inkscape" xmlns:sodipodi="http://sodipodi.sourceforge.net/DTD/sodipodi-0.dtd" version="1.1" id="Layer_1" x="0px" y="0px" width="32" height="32" viewBox="0 0 32 32" xml:space="preserve" inkscape:version="0.91 r13725" sodipodi:docname="alignToRight.svg"><metadata id="metadata4741"><rdf:RDF xmlns:rdf="http://www.w3.org/1999/02/22-rdf-syntax-ns#"><cc:Work xmlns:cc="http://creativecommons.org/ns#" rdf:about=""><dc:format xmlns:dc="http://purl.org/dc/elements/1.1/">image/svg+xml</dc:format><dc:type xmlns:dc="http://purl.org/dc/elements/1.1/" rdf:resource="http://purl.org/dc/dcmitype/StillImage"/><dc:title xmlns:dc="http://purl.org/dc/elements/1.1/"/></cc:Work></rdf:RDF></metadata><defs id="defs4739"/><sodipodi:namedview pagecolor="#ffffff" bordercolor="#666666" borderopacity="1" objecttolerance="10" gridtolerance="10" guidetolerance="10" inkscape:pageopacity="0" inkscape:pageshadow="2" inkscape:window-width="1327" inkscape:window-height="964" id="namedview4737" showgrid="false" inkscape:zoom="10.429825" inkscape:cx="-8.9473172" inkscape:cy="9.3610097" inkscape:window-x="326" inkscape:window-y="207" inkscape:window-maximized="0" inkscape:current-layer="Layer_1"/>

<circle style="fill:#f4f4f4;stroke:#8c8c8c;stroke-width:1;stroke-linejoin:round;stroke-miterlimit:4;stroke-dasharray:none;stroke-dashoffset:0;stroke-opacity:1;fill-opacity:1" id="path4747" cx="16.135593" cy="16.135593" r="14.7532"/><path d="m 20.198422,8.1465982 5.728259,6.3408658 c 0.342667,0.350257 0.514001,0.827332 0.514001,1.35272 0,0.525386 -0.171334,0.996423 -0.514001,1.352718 l -5.728259,6.365024 c -0.679624,0.754863 -1.787582,0.754863 -2.467206,0 -0.679625,-0.754866 -0.679625,-1.974728 0,-2.729595 l 2.747051,-3.043614 -12.3931423,0 c -0.965179,0 -1.747606,-0.863566 -1.747606,-1.932455 0,-1.068891 0.782427,-1.932456 1.747606,-1.932456 l 12.3931423,0 -2.752762,-3.043616 c -0.679626,-0.754864 -0.679626,-1.9747284 0,-2.7295918 0.685335,-0.7548668 1.787582,-0.7548668 2.472917,0 z" id="path4735" inkscape:connector-curvature="0" style="fill:#6e6e6e;fill-opacity:1"/></svg>