<?xml version="1.0" encoding="UTF-8"?>
<!DOCTYPE svg PUBLIC "-//W3C//DTD SVG 1.1//EN" "http://www.w3.org/Graphics/SVG/1.1/DTD/svg11.dtd">
<!-- Generator: Adobe Illustrator 23.0.4, SVG Export Plug-In . SVG Version: 6.00 Build 0)  --><svg xmlns="http://www.w3.org/2000/svg" version="1.1" id="Layer_1" x="0px" y="0px" viewBox="0 0 500 500" style="enable-background:new 0 0 500 500;" xml:space="preserve" width="50" height="50">
<g>
	<defs>
		<rect id="SVGID_13_" x="84.69" y="110.74" width="336.45" height="271.95"/>
	</defs>
	<clipPath id="SVGID_1_">
		<use xmlns:xlink="http://www.w3.org/1999/xlink" style="overflow:visible;" xlink:href="#SVGID_13_"/>
	</clipPath>
	<path style="clip-path:url(#SVGID_1_);fill:#D92029;" d="M80.08,395.47c31.5-67.2,68.96-130.68,111.6-189.14   c20.53-28.13,49.09-57.73,80.01-48.74c12.72,3.7,23.39,13.64,32.38,24.65c34.6,42.43,48.66,101.37,74.44,151.45   c25.79,50.08,74.8,94.92,123.05,77.72"/>
	<path style="clip-path:url(#SVGID_1_);" d="M96.26,386.18c24.99-54.12,53.44-106.46,86.33-156.21   c14.75-22.32,32.67-56.1,58.47-68.04c42.43-19.63,67.09,36.97,80.57,66.46c30.44,66.59,67.89,206.6,169.62,178.1   c12.61-3.54,7.25-23.2-5.42-19.65c-77.3,21.66-113.28-87.76-134.74-140.81c-14.97-37-37.62-99.86-82.96-108.55   c-42.55-8.15-72.77,37.63-93.3,67.61c-37.01,54.06-68.72,111.35-96.17,170.81C73.2,387.72,90.76,398.09,96.26,386.18z"/>
</g>
<polyline style="fill:none;" points="530.56,382.69 -24.56,382.69 -24.56,86.76 530.56,86.76 530.56,382.69 "/>
<polyline style="fill:none;" points="441.14,417.74 56.23,417.74 56.23,86.76 441.14,86.76 441.14,417.74 "/>
<path style="fill:#FFFFFF;" d="M147.98,279.67c4.03,8.26,0.61,18.21-7.64,22.25c-8.26,4.03-18.22,0.61-22.25-7.64  c-4.03-8.26-0.61-18.21,7.64-22.25C133.99,268,143.94,271.42,147.98,279.67z"/>
<path d="M147.98,279.67l-3.05,1.49c0.92,1.88,1.34,3.85,1.35,5.8c0,4.91-2.73,9.61-7.43,11.91c-1.88,0.92-3.85,1.35-5.8,1.35  c-4.91,0-9.61-2.73-11.91-7.43c-0.92-1.88-1.35-3.85-1.35-5.8c0-4.9,2.73-9.61,7.43-11.91c1.88-0.92,3.85-1.35,5.8-1.35  c4.91,0,9.61,2.73,11.91,7.43L147.98,279.67l3.05-1.49c-3.48-7.1-10.6-11.25-18.01-11.24c-2.95,0-5.96,0.66-8.78,2.04  c-7.11,3.48-11.25,10.6-11.24,18.01c0,2.95,0.66,5.96,2.04,8.78c3.47,7.1,10.6,11.25,18.01,11.24c2.95,0,5.96-0.66,8.78-2.04  c7.11-3.48,11.24-10.6,11.24-18.01c0-2.95-0.66-5.96-2.03-8.78L147.98,279.67z"/>
<path style="fill:#FFFFFF;" d="M102.74,365.12c4.03,8.25,0.61,18.21-7.64,22.25c-8.26,4.03-18.22,0.61-22.25-7.65  c-4.03-8.25-0.61-18.21,7.64-22.25C88.75,353.45,98.71,356.87,102.74,365.12z"/>
<path d="M102.74,365.12l-3.05,1.49c0.92,1.88,1.35,3.85,1.35,5.8c0,4.9-2.73,9.61-7.43,11.91c-1.88,0.92-3.85,1.34-5.8,1.35  c-4.91,0-9.61-2.73-11.91-7.43c-0.92-1.88-1.34-3.85-1.35-5.8c0-4.91,2.73-9.61,7.43-11.9c1.88-0.92,3.85-1.35,5.8-1.35  c4.91,0,9.61,2.73,11.91,7.43L102.74,365.12l3.05-1.49c-3.48-7.1-10.6-11.25-18.01-11.24c-2.95,0-5.96,0.66-8.78,2.04  c-7.11,3.47-11.24,10.6-11.24,18.01c0,2.95,0.66,5.96,2.03,8.78c3.48,7.11,10.6,11.25,18.01,11.24c2.95,0,5.96-0.66,8.78-2.03  c7.11-3.48,11.25-10.6,11.24-18.01c0-2.95-0.66-5.96-2.04-8.78L102.74,365.12z"/>
<path style="fill:#FFFFFF;" d="M199.99,201.03c4.03,8.25,0.61,18.21-7.64,22.25c-8.25,4.03-18.21,0.61-22.25-7.64s-0.61-18.21,7.64-22.25  C186,189.36,195.96,192.78,199.99,201.03z"/>
<path d="M199.99,201.03l-3.05,1.49c0.92,1.88,1.35,3.85,1.35,5.8c0,4.9-2.73,9.61-7.43,11.9c-1.88,0.92-3.85,1.35-5.8,1.35  c-4.9,0-9.61-2.73-11.9-7.43c-0.92-1.88-1.35-3.85-1.35-5.8c0-4.9,2.73-9.61,7.43-11.91c1.88-0.92,3.85-1.35,5.8-1.35  c4.91,0,9.61,2.73,11.9,7.43L199.99,201.03l3.05-1.49c-3.47-7.11-10.6-11.25-18.01-11.24c-2.95,0-5.96,0.66-8.78,2.04  c-7.11,3.48-11.25,10.6-11.24,18.01c0,2.95,0.66,5.96,2.04,8.78c3.47,7.1,10.6,11.24,18.01,11.24c2.95,0,5.96-0.66,8.78-2.04  c7.1-3.47,11.25-10.6,11.24-18.01c0-2.95-0.66-5.96-2.04-8.78L199.99,201.03z"/>
<path style="fill:#FFFFFF;" d="M430.28,365.12c4.03,8.25,0.61,18.21-7.64,22.25c-8.26,4.03-18.22,0.61-22.25-7.65  c-4.03-8.25-0.61-18.21,7.64-22.25C416.29,353.45,426.25,356.87,430.28,365.12z"/>
<path d="M430.28,365.12l-3.05,1.49c0.92,1.88,1.35,3.85,1.35,5.8c0,4.9-2.73,9.61-7.43,11.91c-1.88,0.92-3.85,1.34-5.8,1.35  c-4.91,0-9.61-2.73-11.91-7.43c-0.92-1.88-1.35-3.85-1.35-5.8c0-4.9,2.73-9.61,7.43-11.9c1.88-0.92,3.85-1.35,5.8-1.35  c4.91,0,9.61,2.73,11.91,7.43L430.28,365.12l3.05-1.49c-3.48-7.1-10.6-11.25-18.01-11.24c-2.95,0-5.96,0.66-8.78,2.04  c-7.11,3.47-11.25,10.6-11.24,18.01c0,2.95,0.66,5.96,2.04,8.78c3.47,7.11,10.6,11.25,18.01,11.24c2.95,0,5.96-0.66,8.78-2.03  c7.11-3.48,11.25-10.6,11.24-18.01c0-2.95-0.66-5.96-2.04-8.78L430.28,365.12z"/>
<path style="fill:#FFFFFF;" d="M272.19,134.86c4.03,8.26,0.61,18.21-7.64,22.25c-8.25,4.03-18.21,0.61-22.24-7.64  c-4.03-8.26-0.61-18.21,7.64-22.25C258.19,123.18,268.15,126.6,272.19,134.86z"/>
<path d="M272.19,134.86l-3.05,1.49c0.92,1.88,1.35,3.85,1.35,5.8c0,4.9-2.73,9.61-7.43,11.91c-1.88,0.92-3.85,1.35-5.8,1.35  c-4.9,0-9.61-2.73-11.9-7.43c-0.92-1.88-1.35-3.85-1.35-5.8c0-4.9,2.73-9.61,7.43-11.91c1.88-0.92,3.85-1.35,5.8-1.35  c4.9,0,9.61,2.73,11.91,7.43L272.19,134.86l3.05-1.49c-3.48-7.1-10.6-11.24-18.01-11.24c-2.95,0-5.96,0.66-8.78,2.04  c-7.11,3.48-11.25,10.6-11.24,18.01c0,2.95,0.66,5.96,2.04,8.78c3.47,7.1,10.6,11.25,18.01,11.24c2.95,0,5.96-0.66,8.78-2.04  c7.1-3.48,11.25-10.6,11.24-18.01c0-2.95-0.66-5.96-2.04-8.78L272.19,134.86z"/>
<path style="fill:#FFFFFF;" d="M337.53,201.63c4.03,8.25,0.61,18.21-7.64,22.25c-8.25,4.03-18.21,0.61-22.25-7.64  c-4.03-8.25-0.61-18.21,7.64-22.25C323.54,189.95,333.51,193.37,337.53,201.63z"/>
<path d="M337.53,201.63l-3.05,1.49c0.92,1.88,1.35,3.85,1.35,5.8c0,4.9-2.73,9.61-7.43,11.9c-1.88,0.92-3.85,1.35-5.8,1.35  c-4.9,0-9.61-2.73-11.9-7.43c-0.92-1.88-1.35-3.85-1.35-5.8c0-4.9,2.73-9.61,7.43-11.91c1.88-0.92,3.85-1.34,5.8-1.35  c4.91,0,9.62,2.73,11.91,7.43L337.53,201.63l3.05-1.49c-3.47-7.11-10.6-11.25-18.01-11.24c-2.95,0-5.96,0.66-8.78,2.03  c-7.11,3.48-11.25,10.6-11.24,18.01c0,2.95,0.66,5.96,2.04,8.78c3.47,7.1,10.6,11.24,18.01,11.24c2.95,0,5.96-0.66,8.78-2.04  c7.1-3.47,11.25-10.6,11.24-18.01c0-2.95-0.66-5.96-2.04-8.78L337.53,201.63z"/>
<path style="fill:#FFFFFF;" d="M379.09,298.29c4.03,8.25,0.61,18.21-7.64,22.25c-8.25,4.03-18.22,0.61-22.24-7.64  c-4.03-8.25-0.61-18.21,7.64-22.24C365.09,286.61,375.05,290.04,379.09,298.29z"/>
<path d="M379.09,298.29l-3.05,1.49c0.92,1.88,1.35,3.85,1.35,5.8c0,4.9-2.73,9.61-7.43,11.9c-1.88,0.92-3.85,1.35-5.8,1.35  c-4.91,0-9.61-2.73-11.9-7.43c-0.92-1.88-1.35-3.85-1.35-5.8c0-4.9,2.73-9.61,7.43-11.9c1.88-0.92,3.85-1.35,5.8-1.35  c4.9,0,9.61,2.73,11.9,7.43L379.09,298.29l3.05-1.49c-3.48-7.1-10.6-11.25-18.01-11.24c-2.95,0-5.96,0.66-8.78,2.04  c-7.1,3.47-11.25,10.6-11.24,18.01c0,2.95,0.66,5.96,2.04,8.78c3.47,7.1,10.6,11.24,18.01,11.24c2.95,0,5.96-0.66,8.78-2.04  c7.1-3.47,11.25-10.6,11.24-18.01c0-2.95-0.66-5.96-2.04-8.78L379.09,298.29z"/>
</svg>