<?xml version="1.0" encoding="UTF-8"?>
<!DOCTYPE svg PUBLIC "-//W3C//DTD SVG 1.1//EN" "http://www.w3.org/Graphics/SVG/1.1/DTD/svg11.dtd">
<!-- Generator: Adobe Illustrator 23.0.4, SVG Export Plug-In . SVG Version: 6.00 Build 0)  --><svg xmlns="http://www.w3.org/2000/svg" version="1.1" id="Layer_1" x="0px" y="0px" viewBox="0 0 500 500" style="enable-background:new 0 0 500 500;" xml:space="preserve" width="50" height="50">
<polygon style="fill:#D92029;" points="416.5,393.73 351.53,360.93 351.53,381.75 123.43,381.75 123.43,154.07 144.55,154.07 111.72,89.11   78.96,154.07 99.86,154.07 99.86,405.35 351.53,405.35 351.53,426.57 "/>
<g>
	<g>
		<polygon style="fill:#D92029;stroke:#D92029;stroke-width:0.5;stroke-miterlimit:10;" points="311.04,133.06 311.04,147.78 353.65,147.78 299.6,201.74 310,212.16 364.14,158.11 364.14,200.87     378.87,200.87 378.87,133.06   "/>
		<polygon style="fill:#D92029;stroke:#D92029;stroke-width:0.5;stroke-miterlimit:10;" points="261.12,261.22 250.72,250.81 196.58,304.86 196.58,262.06 181.86,262.06 181.86,329.89     249.67,329.89 249.67,315.16 207.09,315.16   "/>
	</g>
	<g>
		<polygon style="fill:#D92029;stroke:#D92029;stroke-width:0.5;stroke-miterlimit:10;" points="253.46,131.45 253.46,146.18 210.86,146.18 264.9,200.13 254.51,210.55 200.37,156.5     200.37,199.27 185.64,199.27 185.64,131.45   "/>
		<polygon style="fill:#D92029;stroke:#D92029;stroke-width:0.5;stroke-miterlimit:10;" points="303.39,259.61 313.79,249.2 367.93,303.25 367.93,260.45 382.65,260.45 382.65,328.28     314.83,328.28 314.83,313.55 357.42,313.55   "/>
	</g>
</g>
</svg>