<?xml version="1.0" encoding="UTF-8"?>
<!DOCTYPE svg PUBLIC "-//W3C//DTD SVG 1.1//EN" "http://www.w3.org/Graphics/SVG/1.1/DTD/svg11.dtd">
<!-- Generator: Adobe Illustrator 23.0.4, SVG Export Plug-In . SVG Version: 6.00 Build 0)  --><svg xmlns="http://www.w3.org/2000/svg" version="1.1" id="Layer_1" x="0px" y="0px" viewBox="0 0 500 500" style="enable-background:new 0 0 500 500;" xml:space="preserve" width="50" height="50">
<polygon points="373.39,386.64 269.07,386.64 269.07,360.02 346.74,360.02 346.74,280.33 373.39,280.33 "/>
<polygon points="231.41,386.64 127.11,386.64 127.11,280.33 153.78,280.33 153.78,360.02 231.41,360.02 "/>
<polygon points="373.39,247.2 346.74,247.2 346.74,167.48 269.07,167.48 269.07,140.86 373.39,140.86 "/>
<polygon points="153.78,247.2 127.11,247.2 127.11,140.86 231.41,140.86 231.41,167.48 153.78,167.48 "/>
<rect x="314.72" y="257.16" style="fill:#D92029;" width="39.98" height="13.32"/>
<rect x="363.83" y="257.16" style="fill:#D92029;" width="39.99" height="13.32"/>
<rect x="412.99" y="257.16" style="fill:#D92029;" width="39.96" height="13.32"/>
<rect x="243.11" y="159.74" style="fill:#D92029;" width="13.35" height="39.97"/>
<rect x="243.11" y="110.64" style="fill:#D92029;" width="13.35" height="39.95"/>
<rect x="243.11" y="61.49" style="fill:#D92029;" width="13.35" height="40"/>
<rect x="243.11" y="427.28" style="fill:#D92029;" width="13.35" height="39.97"/>
<rect x="243.11" y="378.15" style="fill:#D92029;" width="13.35" height="40"/>
<rect x="243.11" y="329.02" style="fill:#D92029;" width="13.35" height="39.98"/>
<rect x="46.62" y="257.16" style="fill:#D92029;" width="39.96" height="13.32"/>
<rect x="95.74" y="257.16" style="fill:#D92029;" width="39.98" height="13.32"/>
<rect x="144.87" y="257.16" style="fill:#D92029;" width="39.92" height="13.32"/>
<path style="fill:#D92029;" d="M288.54,263.74c0,21.14-17.16,38.3-38.28,38.3c-21.2,0-38.32-17.15-38.32-38.3  c0-21.15,17.12-38.28,38.32-38.28C271.39,225.46,288.54,242.59,288.54,263.74z"/>
</svg>