<?xml version="1.0" encoding="UTF-8"?>
<!DOCTYPE svg PUBLIC "-//W3C//DTD SVG 1.1//EN" "http://www.w3.org/Graphics/SVG/1.1/DTD/svg11.dtd">
<!-- Generator: Adobe Illustrator 23.0.4, SVG Export Plug-In . SVG Version: 6.00 Build 0)  --><svg xmlns="http://www.w3.org/2000/svg" version="1.1" id="Layer_1" x="0px" y="0px" viewBox="0 0 500 500" style="enable-background:new 0 0 500 500;" xml:space="preserve" width="50" height="50">
<path style="fill:#939598;" d="M179.19,385.69c0,15.51-12.58,28.09-28.07,28.09c-15.51,0-28.07-12.57-28.07-28.09  c0-15.51,12.56-28.05,28.07-28.05C166.61,357.64,179.19,370.18,179.19,385.69z"/>
<path style="fill:#939598;" d="M202.57,254.83c0,15.53-12.58,28.08-28.1,28.08c-15.49,0-28.07-12.55-28.07-28.08  c0-15.46,12.58-28.06,28.07-28.06C189.99,226.77,202.57,239.37,202.57,254.83z"/>
<path style="fill:#939598;" d="M397.67,273.49c0,15.49-12.57,28.06-28.06,28.06c-15.5,0-28.08-12.57-28.08-28.06  c0-15.53,12.58-28.08,28.08-28.08C385.1,245.41,397.67,257.96,397.67,273.49z"/>
<path style="fill:#939598;" d="M299.4,282.98c0,15.49-12.59,28.03-28.07,28.03c-15.52,0-28.07-12.55-28.07-28.03  c0-15.51,12.55-28.11,28.07-28.11C286.81,254.88,299.4,267.47,299.4,282.98z"/>
<path style="fill:#939598;" d="M387.89,118.67c0,15.49-12.57,28.11-28.06,28.11c-15.51,0-28.09-12.62-28.09-28.11s12.59-28.06,28.09-28.06  C375.32,90.61,387.89,103.18,387.89,118.67z"/>
<path style="fill:#D92029;" d="M90.11,405.08c-1.66,0-3.34-0.19-4.99-0.74c-8.83-2.77-13.75-12.17-10.98-21  c32.08-102.38,104.97-120.47,169.28-136.42C311.33,230.04,369.99,215.5,394.16,115c2.18-9.02,11.3-14.38,20.25-12.36  c8.97,2.18,14.51,11.25,12.33,20.19c-28.91,120.26-106.66,139.56-175.25,156.62c-63.83,15.82-118.93,29.53-145.38,113.91  C103.86,400.54,97.26,405.08,90.11,405.08z"/>
</svg>