<?xml version="1.0" encoding="UTF-8"?>
<!DOCTYPE svg PUBLIC "-//W3C//DTD SVG 1.1//EN" "http://www.w3.org/Graphics/SVG/1.1/DTD/svg11.dtd">
<!-- Generator: Adobe Illustrator 23.0.4, SVG Export Plug-In . SVG Version: 6.00 Build 0)  --><svg xmlns="http://www.w3.org/2000/svg" version="1.1" id="Layer_1" x="0px" y="0px" viewBox="0 0 500 500" style="enable-background:new 0 0 500 500;" xml:space="preserve" width="50" height="50">
<path style="fill:#D92029;" d="M431.57,267.76l-0.05-31l-43.8-7.63c-1.55-9.37-4.03-18.43-7.32-27.09l34.02-28.61l-15.49-26.8l-41.76,15.29  c-5.96-7.25-12.64-13.9-19.91-19.85l15.21-41.77l-26.85-15.46l-28.52,34.14c-8.68-3.26-17.79-5.68-27.17-7.21l0.03-0.02l-7.75-43.78  l-30.98,0.05l-7.63,43.8l0.05,0.03c-9.39,1.55-18.5,4.03-27.16,7.31v-0.03L167.9,85.07l-26.8,15.54l15.28,41.73l0.05,0.02  c-7.25,5.98-13.9,12.69-19.86,19.97l-0.03-0.09l-41.78-15.18L79.3,173.9l34.14,28.52c-3.26,8.68-5.68,17.77-7.19,27.15l-0.03-0.02  l-43.79,7.75l0.05,30.99l43.81,7.62l0.02-0.02c1.54,9.38,4,18.45,7.29,27.13l-34.06,28.61l15.54,26.81l41.73-15.31l0.03-0.07  c5.98,7.26,12.65,13.92,19.93,19.88l-0.07,0.03l-15.17,41.78l26.85,15.46l28.48-34.14l0.01-0.03c8.69,3.26,17.79,5.71,27.18,7.23  l-0.03,0.03l7.75,43.77l30.96-0.03l7.62-43.81l-0.03-0.02c9.39-1.54,18.48-4.01,27.16-7.28l28.62,34.05l26.81-15.55l-15.33-41.72  c7.24-5.96,13.88-12.65,19.84-19.9l41.8,15.17l15.44-26.85l-34.11-28.51c3.26-8.68,5.72-17.77,7.24-27.15L431.57,267.76z   M162.87,291.55c-1.3,0.35-2.6,0.53-3.88,0.54c-7.23,0.13-13.88-4.67-15.82-11.97c-2.23-8.45-3.44-17.16-3.57-25.87  c-0.76-47.65,30.53-90.61,76.1-104.46c8.51-2.57,17.5,2.2,20.09,10.71c2.59,8.51-2.21,17.51-10.72,20.09  c-31.91,9.7-53.81,39.78-53.28,73.15c0.09,6.1,0.94,12.21,2.51,18.13C176.58,280.46,171.46,289.27,162.87,291.55z M246.96,220.04  c17.95-0.03,32.52,14.49,32.55,32.44c0.01,17.95-14.51,32.51-32.46,32.53c-17.95,0.03-32.5-14.49-32.53-32.44  C214.5,234.63,229.01,220.06,246.96,220.04z M322.78,328.62c-19.81,19.74-46.11,30.86-74.06,31.3  c-27.94,0.45-54.59-9.83-75.03-28.93c-6.49-6.06-6.84-16.26-0.76-22.75c6.07-6.5,16.26-6.85,22.75-0.76  c14.32,13.37,32.96,20.57,52.53,20.25c19.56-0.32,37.98-8.1,51.86-21.92c6.29-6.28,16.49-6.26,22.77,0.04  C329.1,312.14,329.08,322.34,322.78,328.62z M351.64,276.78c-1.7,7.36-8.19,12.36-15.42,12.48c-1.28,0.02-2.58-0.12-3.89-0.41  c-8.66-2-14.07-10.65-12.06-19.32c1.38-5.97,2.02-12.1,1.92-18.2c-0.53-33.36-23.38-62.73-55.57-71.4  c-8.6-2.31-13.68-11.15-11.36-19.73c2.31-8.59,11.15-13.65,19.73-11.36c46,12.4,78.64,54.33,79.4,101.98  C354.54,259.52,353.61,268.26,351.64,276.78z"/>
<path style="fill:#D92029;" d="M367.97,255.56c0,66.82-54.16,120.98-120.98,120.98c-66.81,0-120.97-54.16-120.97-120.98  c0-66.81,54.16-120.97,120.97-120.97C313.81,134.59,367.97,188.75,367.97,255.56z"/>
<path style="fill:#D92029;" d="M356.67,257.27h-3.4c0,29.35-11.89,55.9-31.13,75.14c-19.24,19.24-45.79,31.12-75.14,31.13  c-29.35,0-55.9-11.89-75.14-31.13c-19.24-19.24-31.12-45.79-31.13-75.14c0-29.36,11.89-55.9,31.13-75.14  C191.1,162.89,217.64,151,247,151c29.36,0,55.9,11.89,75.14,31.13c19.24,19.24,31.12,45.79,31.13,75.14H356.67h3.4  c0-62.45-50.63-113.08-113.08-113.08c-62.45,0-113.07,50.63-113.07,113.08c0,62.45,50.63,113.07,113.07,113.07  c62.45,0,113.08-50.63,113.08-113.07H356.67z"/>
<circle style="fill:#FFFFFF;" cx="248.05" cy="248.15" r="62.36"/>
</svg>