<?xml version="1.0" encoding="UTF-8"?>
<!DOCTYPE svg PUBLIC "-//W3C//DTD SVG 1.1//EN" "http://www.w3.org/Graphics/SVG/1.1/DTD/svg11.dtd">
<!-- Generator: Adobe Illustrator 23.0.4, SVG Export Plug-In . SVG Version: 6.00 Build 0)  --><svg xmlns="http://www.w3.org/2000/svg" version="1.1" id="Layer_1" x="0px" y="0px" viewBox="0 0 500 500" style="enable-background:new 0 0 500 500;" xml:space="preserve" width="50" height="50">
<path d="M167.48,222.18c2.9-4.99,7.14-7.49,12.72-7.49c5.69,0,9.96,2.55,12.8,7.65c2.85,5.1,4.27,13.45,4.27,25.04  c0,11.7-1.45,20.08-4.35,25.12c-2.9,5.05-7.19,7.57-12.88,7.57c-6.01,0-10.34-2.71-12.97-8.14c-2.63-5.42-3.95-13.61-3.95-24.56  C163.13,235.57,164.58,227.17,167.48,222.18z M146.55,205.03c-9.34,9.99-14.01,24.11-14.01,42.36c0.11,18.25,4.72,32.37,13.85,42.35  c9.13,9.99,20.4,14.98,33.82,14.98c13.31,0,24.58-4.99,33.82-14.98c9.23-9.98,13.85-24.1,13.85-42.35c0-11.7-1.99-21.85-5.96-30.44  c-3.97-8.59-9.74-15.22-17.31-19.89c-7.57-4.67-15.76-7-24.56-7C167.05,190.05,155.89,195.04,146.55,205.03z M82.77,271.54v31.89  h33.5v-31.89H82.77z"/>
<path style="fill:#808285;" d="M275.06,222.18c2.9-4.99,7.14-7.49,12.72-7.49c5.69,0,9.96,2.55,12.8,7.65c2.85,5.1,4.27,13.45,4.27,25.04  c0,11.7-1.45,20.08-4.35,25.12c-2.9,5.05-7.19,7.57-12.88,7.57c-6.01,0-10.34-2.71-12.97-8.14c-2.63-5.42-3.95-13.61-3.95-24.56  C270.71,235.57,272.16,227.17,275.06,222.18z M254.13,205.03c-9.34,9.99-14.01,24.11-14.01,42.36c0.11,18.25,4.72,32.37,13.85,42.35  c9.13,9.99,20.4,14.98,33.82,14.98c13.31,0,24.58-4.99,33.82-14.98c9.23-9.98,13.85-24.1,13.85-42.35c0-11.7-1.99-21.85-5.96-30.44  c-3.97-8.59-9.74-15.22-17.31-19.89s-15.76-7-24.56-7C274.63,190.05,263.47,195.04,254.13,205.03z"/>
<rect x="352.09" y="225.39" style="fill:#D92029;" width="69.99" height="36.67"/>
</svg>