<?xml version="1.0" encoding="UTF-8"?>
<!DOCTYPE svg PUBLIC "-//W3C//DTD SVG 1.1//EN" "http://www.w3.org/Graphics/SVG/1.1/DTD/svg11.dtd">
<!-- Generator: Adobe Illustrator 23.0.4, SVG Export Plug-In . SVG Version: 6.00 Build 0)  --><svg xmlns="http://www.w3.org/2000/svg" version="1.1" id="Layer_1" x="0px" y="0px" viewBox="0 0 500 500" style="enable-background:new 0 0 500 500;" xml:space="preserve" width="50" height="50">
<g>
	<path style="fill:#D92029;" d="M385.7,387.68H97.84l150.57-274.17L385.7,387.68z M329.14,371.5l-96.04-191.75L127.81,371.5H329.14z"/>
	<path style="fill:#D92029;" d="M385.7,387.68v-6.15H108.24l139.91-254.77L380.2,390.44L385.7,387.68v-6.15V387.68l5.5-2.76L248.66,100.27   L87.44,393.84h308.23l-4.46-8.91L385.7,387.68z M329.14,371.5l5.5-2.76L233.34,166.51L117.41,377.66H339.1l-4.46-8.91L329.14,371.5   v-6.15H138.21L232.84,193l90.79,181.26L329.14,371.5v-6.15V371.5z"/>
</g>
<polygon style="fill:#D92029;" points="356.52,129.47 356.52,164.52 321.47,164.52 321.47,194.99 356.52,194.99 356.52,230.04   386.99,230.04 386.99,194.99 422.04,194.99 422.04,164.52 386.99,164.52 386.99,129.47 "/>
</svg>