<?xml version="1.0" encoding="UTF-8"?>
<!DOCTYPE svg PUBLIC "-//W3C//DTD SVG 1.1//EN" "http://www.w3.org/Graphics/SVG/1.1/DTD/svg11.dtd">
<!-- Generator: Adobe Illustrator 23.0.4, SVG Export Plug-In . SVG Version: 6.00 Build 0)  --><svg xmlns="http://www.w3.org/2000/svg" version="1.1" id="Layer_1" x="0px" y="0px" viewBox="0 0 500 500" style="enable-background:new 0 0 500 500;" xml:space="preserve" width="50" height="50">
<line style="fill:#D92029;" x1="306.67" y1="379.96" x2="428.16" y2="102.99"/>
<polyline style="fill:#D92029;" points="316.02,384.06 437.51,107.09 418.81,98.89 297.32,375.86 "/>
<polyline points="179.52,268.11 299.48,387.21 313.87,372.71 193.91,253.62 "/>
<polyline points="126.87,422.84 196.07,264.97 177.36,256.77 108.16,414.64 "/>
<path style="fill:#FFFFFF;" d="M323.75,374.63c0,9.43-7.65,17.07-17.07,17.07c-9.42,0-17.07-7.64-17.07-17.07c0-9.42,7.65-17.07,17.07-17.07  C316.1,357.56,323.75,365.21,323.75,374.63z"/>
<path d="M323.75,374.63h-3.4c-0.01,7.55-6.12,13.65-13.67,13.66c-7.54-0.01-13.65-6.12-13.66-13.66  c0.01-7.54,6.12-13.65,13.66-13.66c7.55,0.01,13.66,6.12,13.67,13.66H323.75h3.4c0-11.31-9.17-20.47-20.48-20.47  c-11.3,0-20.47,9.16-20.47,20.47c0,11.31,9.17,20.47,20.47,20.47c11.31,0,20.48-9.16,20.48-20.47H323.75z"/>
<polyline points="50.36,286.85 108.12,422.74 126.91,414.75 69.16,278.86 "/>
<circle style="fill:#FFFFFF;" cx="186.72" cy="265.37" r="17.07"/>
<path d="M203.79,265.37h-3.4c-0.01,7.54-6.12,13.65-13.66,13.66c-7.55-0.01-13.65-6.12-13.66-13.66  c0.01-7.55,6.12-13.65,13.66-13.66c7.55,0.01,13.65,6.12,13.66,13.66H203.79h3.4c0-11.31-9.16-20.47-20.47-20.47  c-11.31,0-20.47,9.16-20.47,20.47c0,11.31,9.16,20.47,20.47,20.47c11.31,0,20.47-9.17,20.47-20.47H203.79z"/>
<g>
	<path style="fill:#FFFFFF;" d="M75.09,274.94c4.14,8.47,0.63,18.69-7.84,22.83c-8.47,4.14-18.7,0.63-22.83-7.84s-0.63-18.69,7.85-22.83   S70.96,266.47,75.09,274.94z"/>
	<path d="M75.09,274.94l-3.06,1.5c0.95,1.94,1.39,3.97,1.39,5.99c0,5.06-2.82,9.92-7.67,12.29c-1.94,0.95-3.98,1.39-5.99,1.39   c-5.06,0-9.92-2.82-12.29-7.67c-0.95-1.94-1.39-3.97-1.39-5.99c0-5.06,2.82-9.92,7.67-12.29c1.94-0.95,3.97-1.39,5.98-1.39   c5.06,0,9.92,2.82,12.29,7.67L75.09,274.94l3.06-1.49c-3.55-7.26-10.83-11.49-18.41-11.49c-3.02,0-6.09,0.67-8.97,2.08   c-7.26,3.55-11.5,10.84-11.49,18.41c0,3.02,0.67,6.09,2.08,8.97c3.55,7.26,10.84,11.49,18.41,11.49c3.02,0,6.09-0.67,8.98-2.08   c7.26-3.55,11.49-10.83,11.49-18.41c0-3.02-0.67-6.09-2.08-8.98L75.09,274.94z"/>
</g>
<path style="fill:#FFFFFF;" d="M132.85,403.8c4.14,8.47,0.62,18.69-7.85,22.83c-8.47,4.14-18.69,0.62-22.83-7.84  c-4.14-8.47-0.62-18.69,7.85-22.83C118.49,391.82,128.71,395.33,132.85,403.8z"/>
<path d="M132.85,403.8l-3.06,1.49c0.95,1.94,1.39,3.97,1.39,5.99c0,5.06-2.82,9.92-7.67,12.29c-1.94,0.95-3.97,1.39-5.99,1.39  c-5.06,0-9.92-2.82-12.29-7.67c-0.95-1.94-1.39-3.97-1.39-5.98c0-5.06,2.82-9.92,7.67-12.29c1.94-0.95,3.98-1.39,5.99-1.39  c5.06,0,9.92,2.82,12.29,7.67L132.85,403.8l3.06-1.5c-3.55-7.26-10.84-11.49-18.41-11.49c-3.02,0-6.09,0.67-8.98,2.08  c-7.26,3.55-11.5,10.84-11.49,18.41c0,3.02,0.67,6.09,2.08,8.97c3.56,7.26,10.84,11.49,18.41,11.49c3.02,0,6.09-0.67,8.97-2.08  c7.26-3.55,11.5-10.84,11.49-18.41c0-3.02-0.67-6.09-2.08-8.97L132.85,403.8z"/>
<path style="fill:#FFFFFF;" d="M400.44,245.56c0,18.67-15.13,33.8-33.8,33.8c-18.67,0-33.8-15.13-33.8-33.8c0-18.67,15.13-33.8,33.8-33.8  C385.31,211.76,400.44,226.89,400.44,245.56z"/>
<g>
	<g>
		<path style="fill:#D92029;" d="M394.61,232.48l-5.58,2.73c1.73,3.54,2.54,7.25,2.54,10.92c-0.01,9.23-5.14,18.1-13.99,22.42    c-3.54,1.73-7.25,2.54-10.92,2.54c-9.24-0.01-18.1-5.14-22.42-13.99c-1.73-3.54-2.53-7.25-2.54-10.92    c0.01-9.24,5.14-18.1,13.99-22.42c3.54-1.73,7.25-2.54,10.92-2.54c9.23,0.01,18.1,5.14,22.42,13.99L394.61,232.48l5.58-2.73    c-6.48-13.25-19.76-20.97-33.58-20.96c-5.5,0-11.11,1.23-16.37,3.8c-13.25,6.48-20.97,19.77-20.96,33.58    c0,5.5,1.23,11.11,3.8,16.37c6.47,13.25,19.77,20.97,33.58,20.96c5.51,0,11.12-1.23,16.38-3.8c13.24-6.48,20.96-19.76,20.95-33.58    c0-5.51-1.23-11.11-3.8-16.38L394.61,232.48z"/>
	</g>
	<path style="fill:#FFFFFF;" d="M391.82,233.84c6.8,13.91,1.03,30.7-12.87,37.49c-13.91,6.8-30.71,1.03-37.5-12.88s-1.03-30.7,12.89-37.49   S385.03,219.94,391.82,233.84z"/>
	<g>
		<defs>
			<circle id="SVGID_13_" cx="366.64" cy="246.15" r="28.04"/>
		</defs>
		<clipPath id="SVGID_1_">
			<use xmlns:xlink="http://www.w3.org/1999/xlink" style="overflow:visible;" xlink:href="#SVGID_13_"/>
		</clipPath>
		<polygon style="clip-path:url(#SVGID_1_);" points="337.34,269.57 358.88,244.28 339.36,221.1 354.24,221.1 366.87,236.67     379.26,221.1 394,221.1 374.4,244.64 395.94,269.57 380.59,269.57 366.62,252.81 352.6,269.57   "/>
	</g>
</g>
<g>
	<g>
		<path style="fill:#D92029;" d="M453.02,85.22l-5.58,2.73c1.73,3.54,2.54,7.25,2.54,10.92c-0.01,9.23-5.14,18.1-13.99,22.42    c-3.54,1.73-7.25,2.54-10.92,2.54c-9.24-0.01-18.1-5.14-22.42-13.99c-1.73-3.54-2.53-7.25-2.54-10.92    c0.01-9.24,5.14-18.1,13.99-22.42c3.54-1.73,7.25-2.54,10.92-2.54c9.23,0.01,18.1,5.14,22.42,13.99L453.02,85.22l5.58-2.73    c-6.48-13.25-19.76-20.97-33.58-20.96c-5.5,0-11.11,1.23-16.37,3.8c-13.25,6.48-20.97,19.77-20.96,33.58    c0,5.5,1.23,11.11,3.8,16.37c6.47,13.25,19.77,20.97,33.58,20.96c5.51,0,11.12-1.23,16.38-3.8c13.24-6.48,20.96-19.76,20.95-33.58    c0-5.51-1.23-11.11-3.8-16.38L453.02,85.22z"/>
	</g>
	<path style="fill:#FFFFFF;" d="M450.24,86.58c6.8,13.91,1.03,30.7-12.87,37.49c-13.91,6.8-30.71,1.03-37.5-12.88   c-6.79-13.91-1.03-30.7,12.89-37.49C426.66,66.91,443.44,72.68,450.24,86.58z"/>
	<g>
		<defs>
			<circle id="SVGID_15_" cx="425.05" cy="98.89" r="28.04"/>
		</defs>
		<clipPath id="SVGID_2_">
			<use xmlns:xlink="http://www.w3.org/1999/xlink" style="overflow:visible;" xlink:href="#SVGID_15_"/>
		</clipPath>
		<polygon style="clip-path:url(#SVGID_2_);" points="395.75,122.31 417.29,97.02 397.77,73.84 412.65,73.84 425.29,89.41     437.67,73.84 452.41,73.84 432.81,97.38 454.35,122.31 439,122.31 425.03,105.55 411.01,122.31   "/>
	</g>
</g>
</svg>