<?xml version="1.0" encoding="UTF-8"?>
<!DOCTYPE svg PUBLIC "-//W3C//DTD SVG 1.1//EN" "http://www.w3.org/Graphics/SVG/1.1/DTD/svg11.dtd">
<!-- Generator: Adobe Illustrator 23.0.4, SVG Export Plug-In . SVG Version: 6.00 Build 0)  --><svg xmlns="http://www.w3.org/2000/svg" version="1.1" id="Layer_1" x="0px" y="0px" viewBox="0 0 500 500" style="enable-background:new 0 0 500 500;" xml:space="preserve" width="50" height="50">
<path d="M393.44,392.27H89.23l159.12-289.74L393.44,392.27z M333.65,375.18L232.16,172.54L120.9,375.18H333.65z"/>
<g>
	<path style="fill:#FFFFFF;" d="M404.97,243.94c0,42.47-34.42,76.9-76.9,76.9c-42.47,0-76.89-34.43-76.89-76.9s34.42-76.9,76.89-76.9   C370.55,167.04,404.97,201.47,404.97,243.94z"/>
	<path style="fill:#D92029;" d="M390.94,190.92c-2.99-3.55-6.31-6.86-9.85-9.85c-14.8-12.49-33.63-19.37-53.02-19.37   c-5,0-10.09,0.45-15.11,1.35c-33.39,5.94-59.83,32.38-65.77,65.77c-4.37,24.54,2.2,49.38,18.02,68.12   c2.99,3.55,6.31,6.86,9.85,9.85c14.8,12.49,33.62,19.37,53.01,19.37c5,0,10.09-0.45,15.11-1.35c33.39-5.95,59.83-32.38,65.77-65.77   C413.32,234.5,406.76,209.67,390.94,190.92z M367.63,192.25l-91.24,91.24c-8.34-10.87-12.96-23.84-13.37-37.59   c-0.52-17.66,6.03-34.42,18.43-47.2c12.42-12.8,28.98-19.84,46.65-19.84c0.64,0,1.3,0.01,1.95,0.03   C343.79,179.29,356.76,183.91,367.63,192.25z M288.52,295.62l91.24-91.24c8.34,10.87,12.96,23.84,13.36,37.59   c0.53,17.66-6.02,34.42-18.42,47.2c-12.42,12.8-28.99,19.84-46.65,19.84c-0.64,0-1.3-0.01-1.95-0.03   C312.36,308.58,299.39,303.96,288.52,295.62z"/>
	<g>
		<path style="fill:#D92029;" d="M272.89,184.65c-3.55,2.99-6.86,6.31-9.85,9.85c-12.49,14.8-19.37,33.63-19.37,53.02    c0,5,0.45,10.09,1.35,15.11c5.94,33.39,32.38,59.83,65.77,65.77c24.54,4.37,49.38-2.2,68.12-18.02c3.55-2.99,6.86-6.31,9.85-9.85    c12.49-14.8,19.37-33.62,19.37-53.01c0-5-0.45-10.09-1.35-15.11c-5.95-33.39-32.38-59.83-65.77-65.77    C316.46,162.26,291.63,168.83,272.89,184.65z M274.22,207.96l91.24,91.24c-10.87,8.34-23.84,12.96-37.59,13.37    c-17.66,0.52-34.42-6.03-47.2-18.43c-12.8-12.42-19.84-28.98-19.84-46.65c0-0.64,0.01-1.3,0.03-1.95    C261.26,231.8,265.88,218.83,274.22,207.96z M377.58,287.07l-91.24-91.24c10.87-8.34,23.84-12.96,37.59-13.36    c17.66-0.53,34.42,6.02,47.2,18.42c12.8,12.42,19.84,28.99,19.84,46.65c0,0.64-0.01,1.3-0.03,1.95    C390.55,263.23,385.92,276.2,377.58,287.07z"/>
	</g>
</g>
</svg>