<?xml version="1.0" encoding="UTF-8"?>
<!DOCTYPE svg PUBLIC "-//W3C//DTD SVG 1.1//EN" "http://www.w3.org/Graphics/SVG/1.1/DTD/svg11.dtd">
<!-- Generator: Adobe Illustrator 23.0.4, SVG Export Plug-In . SVG Version: 6.00 Build 0)  --><svg xmlns="http://www.w3.org/2000/svg" version="1.1" id="Layer_1" x="0px" y="0px" viewBox="0 0 500 500" style="enable-background:new 0 0 500 500;" xml:space="preserve" width="50" height="50">
<path d="M262.03,222.37c2.9-4.99,7.14-7.49,12.72-7.49c5.69,0,9.96,2.55,12.8,7.65s4.27,13.45,4.27,25.04  c0,11.7-1.45,20.08-4.35,25.12c-2.9,5.05-7.19,7.57-12.88,7.57c-6.01,0-10.34-2.71-12.97-8.14c-2.63-5.42-3.95-13.61-3.95-24.56  C257.68,235.77,259.13,227.37,262.03,222.37z M241.09,205.22c-9.34,9.99-14.01,24.11-14.01,42.36c0.11,18.25,4.72,32.37,13.85,42.35  c9.13,9.99,20.4,14.98,33.82,14.98c13.31,0,24.58-4.99,33.82-14.98c9.23-9.98,13.85-24.1,13.85-42.35c0-11.7-1.99-21.85-5.96-30.44  c-3.97-8.59-9.74-15.22-17.31-19.89c-7.57-4.67-15.76-7-24.56-7C261.6,190.24,250.43,195.24,241.09,205.22z M154.45,222.37  c2.9-4.99,7.14-7.49,12.72-7.49c5.69,0,9.96,2.55,12.8,7.65s4.27,13.45,4.27,25.04c0,11.7-1.45,20.08-4.35,25.12  c-2.9,5.05-7.19,7.57-12.88,7.57c-6.01,0-10.34-2.71-12.97-8.14c-2.63-5.42-3.95-13.61-3.95-24.56  C150.1,235.77,151.55,227.37,154.45,222.37z M133.51,205.22c-9.34,9.99-14.01,24.11-14.01,42.36c0.11,18.25,4.72,32.37,13.85,42.35  c9.13,9.99,20.4,14.98,33.82,14.98c13.31,0,24.58-4.99,33.82-14.98c9.23-9.98,13.85-24.1,13.85-42.35c0-11.7-1.99-21.85-5.96-30.44  c-3.97-8.59-9.74-15.22-17.31-19.89c-7.57-4.67-15.76-7-24.56-7C154.02,190.24,142.85,195.24,133.51,205.22z M69.74,271.73v31.89  h33.5v-31.89H69.74z"/>
<polygon style="fill:#D92029;" points="378.63,190.7 378.63,230.05 339.28,230.05 339.28,264.27 378.63,264.27 378.63,303.62 412.85,303.62   412.85,264.27 452.2,264.27 452.2,230.05 412.85,230.05 412.85,190.7 "/>
</svg>