<?xml version="1.0" encoding="UTF-8"?>
<!DOCTYPE svg PUBLIC "-//W3C//DTD SVG 1.1//EN" "http://www.w3.org/Graphics/SVG/1.1/DTD/svg11.dtd">
<!-- Generator: Adobe Illustrator 23.0.4, SVG Export Plug-In . SVG Version: 6.00 Build 0)  --><svg xmlns="http://www.w3.org/2000/svg" version="1.1" id="Layer_1" x="0px" y="0px" viewBox="0 0 500 500" style="enable-background:new 0 0 500 500;" xml:space="preserve" width="50" height="50">
<polygon style="fill:#D92029;" points="110.88,162.58 81.64,104.67 52.39,162.58 71.06,162.58 71.06,377.04 92.08,377.04 92.08,162.58 "/>
<polygon style="fill:#D92029;" points="180.94,273.45 180.94,263.1 127.12,263.05 148.41,241.76 141.09,234.44 107.35,268.18 141.08,301.91   148.41,294.59 127.22,273.4 "/>
<polygon style="fill:#D92029;" points="180.94,273.45 183.71,273.45 183.72,260.33 133.81,260.28 152.33,241.76 141.09,230.52   103.42,268.18 141.08,305.84 152.33,294.59 133.92,276.18 183.71,276.22 183.71,273.45 180.94,273.45 180.94,270.68 120.53,270.63   144.49,294.59 141.08,297.99 111.27,268.18 141.09,238.36 144.49,241.76 120.43,265.82 178.17,265.87 178.16,273.45 180.94,273.45   180.94,270.68 "/>
<g>
	<defs>
		<rect id="SVGID_13_" x="193.16" y="334.48" width="276.13" height="63.99"/>
	</defs>
	<clipPath id="SVGID_1_">
		<use xmlns:xlink="http://www.w3.org/1999/xlink" style="overflow:visible;" xlink:href="#SVGID_13_"/>
	</clipPath>
	<polygon style="clip-path:url(#SVGID_1_);" points="469.29,367.26 413.33,339.02 413.33,356.94 216.86,356.94 216.86,160.84    235.05,160.84 206.77,104.89 178.55,160.84 196.55,160.84 196.55,377.27 413.33,377.27 413.33,395.55  "/>
</g>
<polygon style="fill:#808285;" points="235.74,162.45 206.45,104.45 177.15,162.45 195.86,162.45 195.86,377.27 216.91,377.27   216.91,162.45 "/>
</svg>