<?xml version="1.0" encoding="UTF-8"?>
<!DOCTYPE svg PUBLIC "-//W3C//DTD SVG 1.1//EN" "http://www.w3.org/Graphics/SVG/1.1/DTD/svg11.dtd">
<!-- Generator: Adobe Illustrator 23.0.4, SVG Export Plug-In . SVG Version: 6.00 Build 0)  --><svg xmlns="http://www.w3.org/2000/svg" version="1.1" id="Layer_1" x="0px" y="0px" viewBox="0 0 500 500" style="enable-background:new 0 0 500 500;" xml:space="preserve" width="50" height="50">
<g>
	<polygon style="fill:#D92029;" points="154.96,268.82 154.95,280.22 214.23,280.27 190.78,303.72 198.84,311.78 236.01,274.62    198.85,237.46 190.78,245.54 214.12,268.87  "/>
	<polygon style="fill:#D92029;" points="154.96,268.82 151.9,268.82 151.9,283.27 206.86,283.32 186.46,303.72 198.84,316.1 240.33,274.62    198.85,233.15 186.46,245.54 206.74,265.81 151.91,265.76 151.9,268.82 154.96,268.82 154.95,271.87 221.49,271.93 195.1,245.54    198.85,241.78 231.69,274.62 198.84,307.46 195.1,303.72 221.59,277.22 158.01,277.17 158.01,268.82 154.96,268.82 154.95,271.87     "/>
</g>
<polygon style="fill:#D92029;" points="301.14,165.01 268.93,101.23 236.72,165.01 257.28,165.01 257.28,401.21 280.44,401.21   280.44,165.01 "/>
<g>
	<defs>
		<rect id="SVGID_13_" x="107.62" y="353.28" width="308.8" height="71.26"/>
	</defs>
	<clipPath id="SVGID_1_">
		<use xmlns:xlink="http://www.w3.org/1999/xlink" style="overflow:visible;" xlink:href="#SVGID_13_"/>
	</clipPath>
	<polygon style="clip-path:url(#SVGID_1_);" points="414.01,390.44 352.37,359.33 352.37,379.07 136,379.07 136,163.09    156.02,163.09 124.88,101.47 93.81,163.09 113.63,163.09 113.63,401.46 352.37,401.46 352.37,421.59  "/>
</g>
<polygon style="fill:#808285;" points="159.73,164.87 125.96,100.98 92.17,164.87 113.74,164.87 113.74,401.46 138.02,401.46 138.02,164.87   "/>
</svg>