<?xml version="1.0" encoding="UTF-8"?>
<!DOCTYPE svg PUBLIC "-//W3C//DTD SVG 1.1//EN" "http://www.w3.org/Graphics/SVG/1.1/DTD/svg11.dtd">
<!-- Generator: Adobe Illustrator 23.0.4, SVG Export Plug-In . SVG Version: 6.00 Build 0)  --><svg xmlns="http://www.w3.org/2000/svg" version="1.1" id="Layer_1" x="0px" y="0px" viewBox="0 0 500 500" style="enable-background:new 0 0 500 500;" xml:space="preserve" width="50" height="50">
<path style="fill:#939598;" d="M86.36,228.83c-10.63,0-19.26,8.62-19.26,19.26s8.62,19.26,19.26,19.26s19.26-8.62,19.26-19.26  S96.99,228.83,86.36,228.83z M134.9,230.07c-10.63,0-19.25,8.62-19.25,19.26c0,10.63,8.62,19.26,19.25,19.26  c10.64,0,19.26-8.62,19.26-19.26C154.15,238.69,145.54,230.07,134.9,230.07z"/>
<circle style="fill:#D92029;" cx="376.52" cy="249.33" r="19.26"/>
<circle style="fill:#D92029;" cx="427.15" cy="249.33" r="19.26"/>
<circle style="fill:#D92029;" cx="326.49" cy="249.33" r="19.26"/>
<circle style="fill:#939598;" cx="183.87" cy="249.33" r="19.26"/>
<path style="fill:#D92029;" d="M189.27,361.59l98.66-98.66c4.2-4.19,6.28-9.69,6.28-15.19c0.01-5.5-2.08-11-6.28-15.19l-98.66-98.65  c-8.37-8.37-21.94-8.37-30.31,0s-8.37,21.95,0,30.32l83.52,83.52l-83.52,83.52c-8.37,8.37-8.37,21.95,0,30.32  C167.33,369.97,180.9,369.97,189.27,361.59z"/>
</svg>