<?xml version="1.0" encoding="UTF-8"?>
<!DOCTYPE svg PUBLIC "-//W3C//DTD SVG 1.1//EN" "http://www.w3.org/Graphics/SVG/1.1/DTD/svg11.dtd">
<!-- Generator: Adobe Illustrator 23.0.4, SVG Export Plug-In . SVG Version: 6.00 Build 0)  --><svg xmlns="http://www.w3.org/2000/svg" version="1.1" id="Layer_1" x="0px" y="0px" viewBox="0 0 500 500" style="enable-background:new 0 0 500 500;" xml:space="preserve" width="50" height="50">
<path d="M74.48,351.67c46.29,0.62,77.53-15.16,99.26-56.86c16.99-32.62,42.5-159.68,85.97-151.38  c26.31,5.03,34.44,52.11,42.77,74.43c8.65,23.14,18.24,45.66,32.68,65.88c22.12,30.98,52.87,54.87,92.22,54.68  c18.4-0.09,18.44-28.68,0-28.6c-61.63,0.3-86.96-71.93-104.45-119.31c-10.87-29.44-25.57-78.8-63.98-80.74  c-38.76-1.96-61.47,48.19-73.49,77.32c-11.43,27.72-19.42,56.85-32,84.11c-16.42,35.58-38.79,52.41-78.98,51.87  C56.08,322.82,56.07,351.42,74.48,351.67z"/>
<polyline points="57.51,224.96 425.14,224.96 425.14,207.54 57.51,207.54 "/>
<rect x="85.57" y="206.54" style="fill:#FFFFFF;" width="85.64" height="19.49"/>
<polygon style="fill:#D92029;" points="101.52,209.61 117.2,221.59 144.56,184.77 128.88,172.79 "/>
<path style="fill:#D92029;" d="M94.53,204.27l27.37-36.82l-27.31-20.86c-0.97-0.74-2.17-1.05-3.36-0.88c-1.22,0.17-2.31,0.82-3.07,1.84  L66.41,176.8c-0.52,0.7-0.82,1.49-0.92,2.3c-0.21,1.64,0.43,3.32,1.81,4.38L94.53,204.27z"/>
<polygon style="fill:#D92029;" points="124.18,226.93 313.27,371.36 340.63,334.54 151.54,190.11 "/>
<polygon style="fill:#D92029;" points="321.24,375.36 367.91,384.26 346.6,341.24 "/>
</svg>