<?xml version="1.0" encoding="UTF-8"?>
<!DOCTYPE svg PUBLIC "-//W3C//DTD SVG 1.1//EN" "http://www.w3.org/Graphics/SVG/1.1/DTD/svg11.dtd">
<!-- Generator: Adobe Illustrator 23.0.4, SVG Export Plug-In . SVG Version: 6.00 Build 0)  --><svg xmlns="http://www.w3.org/2000/svg" version="1.1" id="Layer_1" x="0px" y="0px" viewBox="0 0 500 500" style="enable-background:new 0 0 500 500;" xml:space="preserve" width="50" height="50">
<path style="fill:#939598;" d="M401.58,243.73c0,10.63,8.62,19.26,19.26,19.26c10.64,0,19.26-8.62,19.26-19.26s-8.62-19.26-19.26-19.26  C410.2,224.48,401.58,233.1,401.58,243.73z M353.04,244.98c0,10.63,8.62,19.26,19.26,19.26c10.64,0,19.26-8.62,19.26-19.26  c0-10.64-8.62-19.26-19.26-19.26C361.67,225.72,353.04,234.34,353.04,244.98z"/>
<circle style="fill:#D92029;" cx="130.68" cy="244.98" r="19.26"/>
<circle style="fill:#D92029;" cx="80.05" cy="244.98" r="19.26"/>
<circle style="fill:#D92029;" cx="180.72" cy="244.98" r="19.26"/>
<circle style="fill:#939598;" cx="323.33" cy="244.98" r="19.26"/>
<path style="fill:#D92029;" d="M317.92,357.24l-98.65-98.66c-4.2-4.19-6.29-9.69-6.28-15.19c-0.01-5.5,2.08-11,6.28-15.19l98.65-98.65  c8.37-8.37,21.95-8.37,30.32,0c8.37,8.37,8.37,21.95,0,30.32l-83.53,83.52l83.53,83.52c8.37,8.37,8.37,21.95,0,30.32  C339.87,365.62,326.29,365.62,317.92,357.24z"/>
</svg>