<?xml version="1.0" encoding="UTF-8"?>
<!DOCTYPE svg PUBLIC "-//W3C//DTD SVG 1.1//EN" "http://www.w3.org/Graphics/SVG/1.1/DTD/svg11.dtd">
<!-- Generator: Adobe Illustrator 23.0.4, SVG Export Plug-In . SVG Version: 6.00 Build 0)  --><svg xmlns="http://www.w3.org/2000/svg" version="1.1" id="Layer_1" x="0px" y="0px" viewBox="0 0 500 500" style="enable-background:new 0 0 500 500;" xml:space="preserve" width="50" height="50">
<path style="fill:#D92029;" d="M218.32,148.13h-85.5c-1.85,0-3.35-1.5-3.35-3.35v-36.23c0-1.85,1.5-3.35,3.35-3.35h85.5  c1.85,0,3.34,1.5,3.34,3.35v36.23C221.67,146.63,220.17,148.13,218.32,148.13z"/>
<path style="fill:#D92029;" d="M403.59,148.13H247.41c-1.85,0-3.35-1.5-3.35-3.35v-36.23c0-1.85,1.5-3.35,3.35-3.35h156.18  c1.86,0,3.35,1.5,3.35,3.35v36.23C406.94,146.63,405.45,148.13,403.59,148.13z"/>
<path style="fill:#D92029;" d="M218.32,202.45h-85.5c-1.85,0-3.35-1.5-3.35-3.35v-36.23c0-1.85,1.5-3.35,3.35-3.35h85.5  c1.85,0,3.34,1.5,3.34,3.35v36.23C221.67,200.95,220.17,202.45,218.32,202.45z"/>
<path style="fill:#D92029;" d="M403.59,202.45H247.41c-1.85,0-3.35-1.5-3.35-3.35v-36.23c0-1.85,1.5-3.35,3.35-3.35h156.18  c1.86,0,3.35,1.5,3.35,3.35v36.23C406.94,200.95,405.45,202.45,403.59,202.45z"/>
<path style="fill:#D92029;" d="M218.32,256.77h-85.5c-1.85,0-3.35-1.5-3.35-3.35v-36.23c0-1.85,1.5-3.35,3.35-3.35h85.5  c1.85,0,3.34,1.5,3.34,3.35v36.23C221.67,255.27,220.17,256.77,218.32,256.77z"/>
<path style="fill:#D92029;" d="M403.59,256.77H247.41c-1.85,0-3.35-1.5-3.35-3.35v-36.23c0-1.85,1.5-3.35,3.35-3.35h156.18  c1.86,0,3.35,1.5,3.35,3.35v36.23C406.94,255.27,405.45,256.77,403.59,256.77z"/>
<path style="fill:#D92029;" d="M403.59,311.1H247.41c-1.85,0-3.35-1.5-3.35-3.35v-36.23c0-1.85,1.5-3.35,3.35-3.35h156.18  c1.86,0,3.35,1.5,3.35,3.35v36.23C406.94,309.59,405.45,311.1,403.59,311.1z"/>
<path style="fill:#D92029;" d="M403.59,365.41H247.41c-1.85,0-3.35-1.5-3.35-3.35v-36.23c0-1.85,1.5-3.35,3.35-3.35h156.18  c1.86,0,3.35,1.5,3.35,3.35v36.23C406.94,363.91,405.45,365.41,403.59,365.41z"/>
<path d="M219.79,373.68l-4.06-83.63c-0.13-2.75-1.38-5.19-3.27-6.9c-1.89-1.72-4.43-2.72-7.19-2.59l-83.63,4.06  c-5.5,0.27-9.74,4.94-9.47,10.44c0.27,5.5,4.94,9.74,10.43,9.47l60.65-2.95L78.28,430.6l0.33,0.3l118.32-117.05l2.95,60.79  c0.27,5.5,4.94,9.74,10.44,9.47C215.81,383.85,220.05,379.17,219.79,373.68z"/>
<path d="M219.79,373.68l3.4-0.17l-4.06-83.63c-0.18-3.69-1.85-6.98-4.39-9.27l0.01,0.01c-2.38-2.17-5.56-3.49-8.99-3.49l-0.67,0.02  l-83.62,4.06c-7.15,0.35-12.72,6.24-12.72,13.34l0.02,0.68l0-0.02c0.35,7.16,6.25,12.72,13.34,12.72l0.64-0.01l53.03-2.58  L73.62,430.94l2.69,2.47l2.39,2.19l115.2-113.96l2.58,53.17c0.35,7.15,6.25,12.72,13.34,12.72l0.65-0.01l0.01,0  c7.15-0.35,12.72-6.25,12.72-13.35l-0.02-0.65L219.79,373.68l-3.4,0.16l0.01,0.33c0,3.47-2.74,6.38-6.24,6.55l0.01,0l-0.34,0.01  c-3.47,0-6.38-2.73-6.54-6.24l-3.32-68.41L76.21,428.48l2.39,2.42l2.3-2.51l-0.33-0.3l-2.3,2.51l2.64,2.15L190.7,297.81l-68.27,3.32  l-0.32,0.01c-3.46,0-6.38-2.73-6.54-6.24l0-0.04l0,0.03l-0.01-0.32c0-3.46,2.73-6.37,6.24-6.54l83.63-4.06l0.01,0l0.31-0.01  c1.69,0,3.23,0.64,4.4,1.71l0.01,0.01c1.25,1.14,2.06,2.73,2.15,4.54l4.06,83.63L219.79,373.68z"/>
</svg>