<?xml version="1.0" encoding="UTF-8"?>
<!DOCTYPE svg PUBLIC "-//W3C//DTD SVG 1.1//EN" "http://www.w3.org/Graphics/SVG/1.1/DTD/svg11.dtd">
<!-- Generator: Adobe Illustrator 23.0.4, SVG Export Plug-In . SVG Version: 6.00 Build 0)  --><svg xmlns="http://www.w3.org/2000/svg" version="1.1" id="Layer_1" x="0px" y="0px" viewBox="0 0 500 500" style="enable-background:new 0 0 500 500;" xml:space="preserve" width="50" height="50">
<path d="M128.9,389.34c21.3-45.39,48.41-92.55,84.7-127.7c28.43-27.55,52.58-18.22,74.07,10.36c17.78,23.64,34.22,48.42,51.28,72.58  c10.73,15.2,36,0.66,25.16-14.71c-28.48-40.35-71.5-135.51-135.76-112.77c-28.15,9.96-47.79,36.4-65.24,59.17  c-23.45,30.59-43.01,63.5-59.37,98.36C95.82,391.51,120.93,406.32,128.9,389.34z"/>
<polygon points="435.21,398.67 364.12,362.79 364.12,385.56 114.56,385.56 114.56,136.46 137.66,136.46 101.74,65.39 65.9,136.46   88.76,136.46 88.76,411.38 364.12,411.38 364.12,434.61 "/>
<path style="fill:#D92029;" d="M142.15,242.82c-5.83,0-11.27-3.57-12.89-9.05c-1.99-6.51,2.14-13.27,9.34-15.1l194.15-49.15  c7.06-1.97,14.54,1.97,16.51,8.57c1.97,6.53-2.22,13.26-9.39,15.07l-194.12,49.19C144.53,242.65,143.36,242.82,142.15,242.82z"/>
</svg>