<?xml version="1.0" encoding="UTF-8"?>
<!DOCTYPE svg PUBLIC "-//W3C//DTD SVG 1.1//EN" "http://www.w3.org/Graphics/SVG/1.1/DTD/svg11.dtd">
<!-- Generator: Adobe Illustrator 23.0.4, SVG Export Plug-In . SVG Version: 6.00 Build 0)  --><svg xmlns="http://www.w3.org/2000/svg" version="1.1" id="Layer_1" x="0px" y="0px" viewBox="0 0 500 500" style="enable-background:new 0 0 500 500;" xml:space="preserve" width="50" height="50">
<path d="M209.96,362.67H65.69c-3.51,0-6.64-2.97-7.83-7.38c-1.17-4.43-0.15-9.38,2.57-12.36l84.78-92.6l-84.78-92.61  c-2.72-2.95-3.74-7.91-2.57-12.33c1.19-4.44,4.32-7.38,7.83-7.38h144.27c4.59,0,8.3,4.96,8.3,11.1c0,6.14-3.72,11.12-8.3,11.12  H88.99l74.61,81.48c1.94,2.14,3.05,5.28,3.05,8.61c0,3.36-1.11,6.52-3.05,8.64L89,340.45h120.97c4.59,0,8.3,4.97,8.3,11.09  C218.27,357.7,214.55,362.67,209.96,362.67z"/>
<path d="M209.96,362.67v-3.4H65.69c-0.78,0-1.59-0.31-2.45-1.11c-0.85-0.79-1.65-2.09-2.09-3.76l0,0.01  c-0.24-0.92-0.37-1.89-0.37-2.85c-0.01-2.54,0.89-4.98,2.16-6.34l-0.01,0.01l86.89-94.9l-86.89-94.91l-0.01-0.01  c-1.26-1.33-2.17-3.77-2.15-6.3c0-0.96,0.12-1.93,0.37-2.84l0,0.01c0.45-1.68,1.25-2.97,2.09-3.76c0.86-0.79,1.66-1.09,2.45-1.1  h144.27c1.02,0,2.11,0.52,3.15,1.88c1.01,1.34,1.76,3.43,1.75,5.82c0.01,2.38-0.74,4.48-1.76,5.82c-1.04,1.36-2.13,1.89-3.15,1.89  H81.26l79.83,87.19l-0.01-0.01c1.27,1.38,2.18,3.74,2.17,6.33c0.01,2.62-0.91,5-2.16,6.34l-79.82,87.18h128.7  c1.01,0,2.11,0.53,3.15,1.88c1.01,1.34,1.76,3.43,1.75,5.8c0.01,2.39-0.74,4.49-1.76,5.84c-1.04,1.36-2.13,1.89-3.14,1.89V362.67  v3.4c3.58,0,6.64-1.96,8.6-4.62c1.99-2.68,3.1-6.15,3.11-9.91c-0.01-3.75-1.12-7.21-3.11-9.88c-1.97-2.66-5.02-4.61-8.6-4.61H96.73  l69.38-75.78l0,0c2.63-2.9,3.93-6.83,3.94-10.93c-0.01-4.08-1.32-7.99-3.93-10.9l-0.05-0.05l-69.35-75.74l113.24,0  c3.58,0,6.64-1.96,8.6-4.62c1.99-2.68,3.1-6.14,3.11-9.9c-0.01-3.76-1.12-7.22-3.11-9.9c-1.97-2.66-5.03-4.61-8.6-4.61H65.69  c-2.72,0-5.24,1.16-7.12,2.95c-1.9,1.79-3.26,4.2-4,6.95l0,0.01c-0.4,1.52-0.59,3.06-0.59,4.59c0.02,4.01,1.27,7.97,3.95,10.91  l-0.01-0.01l82.68,90.31l-82.68,90.3l-0.01,0.01c-2.66,2.96-3.92,6.91-3.94,10.93c0,1.53,0.19,3.08,0.59,4.6l0,0.01  c0.74,2.74,2.1,5.14,3.99,6.93c1.88,1.79,4.39,2.97,7.12,2.96h144.27V362.67z"/>
<linearGradient id="SVGID_1_" gradientUnits="userSpaceOnUse" x1="-134.7966" y1="-347.9481" x2="-127.9881" y2="-347.9481" gradientTransform="matrix(28.1003 0 0 -28.1003 4037.0369 -9586.9248)">
	<stop offset="0" style="stop-color:#53B94A"/>
	<stop offset="1" style="stop-color:#3DB149"/>
</linearGradient>
<path style="fill:url(#SVGID_1_);" d="M249.21,190.52c0-27.46,20.34-49.74,45.57-50.11v-0.01h99.57c25.51,0,46.18,22.44,46.18,50.12  s-20.68,50.12-46.18,50.12h-99.57v-0.01C269.55,240.27,249.21,217.98,249.21,190.52z"/>
<path style="fill:#E6E7E8;" d="M249.21,310.16c0-27.46,20.34-49.74,45.57-50.1v-0.02h99.57c25.51,0,46.18,22.44,46.18,50.12  s-20.68,50.13-46.18,50.13h-99.57v-0.02C269.55,359.91,249.21,337.62,249.21,310.16z"/>
<path style="fill:#FFFFFF;" d="M392.04,152.83c-20.82,0-37.7,16.88-37.7,37.69s16.88,37.7,37.7,37.7c20.82,0,37.7-16.88,37.7-37.7  S412.86,152.83,392.04,152.83z"/>
<path style="fill:#FFFFFF;" d="M296.11,272.47c-20.82,0-37.7,16.88-37.7,37.69s16.88,37.7,37.7,37.7c20.82,0,37.7-16.88,37.7-37.7  S316.93,272.47,296.11,272.47z"/>
</svg>