<?xml version="1.0" encoding="UTF-8"?>
<!DOCTYPE svg PUBLIC "-//W3C//DTD SVG 1.1//EN" "http://www.w3.org/Graphics/SVG/1.1/DTD/svg11.dtd">
<!-- Generator: Adobe Illustrator 23.0.4, SVG Export Plug-In . SVG Version: 6.00 Build 0)  --><svg xmlns="http://www.w3.org/2000/svg" version="1.1" id="Layer_1" x="0px" y="0px" viewBox="0 0 500 500" style="enable-background:new 0 0 500 500;" xml:space="preserve" width="50" height="50">
<path d="M74.6,344.37c45.71,0.75,76.46-16.09,97.14-57.64c11.56-23.22,19.3-48.27,27.49-72.81c5.63-16.91,10.95-34.14,18.36-50.38  c3.2-7.03,6.65-14.15,10.7-20.73c8.52-13.87,11.1-21.23,28.79-18.41c27.43,4.37,34.09,50.52,42.11,74.17  c8.39,24.73,17.7,49.24,31.95,71.26c21.21,32.76,52.09,60.73,93.03,60.36c18.39-0.16,18.44-28.76,0-28.59  c-61.47,0.55-86.54-78.6-102.33-125.34c-10.26-30.37-24.34-86.49-64.51-88.65c-43.31-2.34-65.58,61.09-76.93,92.85  c-10.03,28.09-17.81,57.12-30.05,84.38c-15.8,35.2-36.43,51.59-75.76,50.94C56.19,315.47,56.19,344.06,74.6,344.37z"/>
<polyline style="fill:#D92029;" points="81.28,214.12 421.96,214.12 421.96,186.89 81.28,186.89 "/>
<rect x="58.98" y="267.96" style="fill:#FFFFFF;" width="163.25" height="85.14"/>
<path d="M225.83,381.49l-4.06-83.63c-0.13-2.75-1.37-5.19-3.26-6.9c-1.89-1.72-4.44-2.72-7.19-2.58l-83.63,4.06  c-5.5,0.27-9.73,4.94-9.47,10.44c0.27,5.5,4.94,9.74,10.44,9.47l60.64-2.95L84.32,438.42l0.33,0.3l118.31-117.05l2.95,60.79  c0.27,5.5,4.94,9.74,10.44,9.47C221.86,391.66,226.09,386.99,225.83,381.49z"/>
<path d="M225.83,381.49l3.4-0.17l-4.06-83.63c-0.18-3.68-1.84-6.97-4.38-9.26c-2.38-2.16-5.55-3.48-8.99-3.48l-0.67,0.02l0.01,0  l-83.63,4.06c-7.16,0.35-12.72,6.25-12.72,13.35l0.02,0.67l0-0.02c0.35,7.16,6.25,12.72,13.35,12.72l0.64-0.01l53.03-2.58  L79.64,438.78l2.74,2.47l2.39,2.15l115.17-113.94l2.58,53.17c0.35,7.16,6.25,12.72,13.35,12.72l0.64-0.01  c7.17-0.35,12.73-6.26,12.73-13.35l-0.02-0.65L225.83,381.49l-3.4,0.16l0.01,0.33c0,3.47-2.73,6.38-6.24,6.55l-0.33,0.01  c-3.47,0-6.38-2.73-6.55-6.24L206,313.88L82.26,436.3l2.39,2.42l2.28-2.53l-0.33-0.3l-2.28,2.53l2.64,2.15l109.78-134.94  l-68.26,3.32l-0.32,0.01c-3.47,0-6.38-2.73-6.55-6.24l0-0.04l0,0.03l-0.01-0.31c0-3.47,2.73-6.38,6.24-6.55l83.63-4.06l0.01,0  l0.31-0.01c1.69,0,3.23,0.64,4.42,1.71c1.26,1.14,2.06,2.72,2.15,4.55l4.06,83.63L225.83,381.49z"/>
</svg>