<?xml version="1.0" encoding="UTF-8"?>
<!DOCTYPE svg PUBLIC "-//W3C//DTD SVG 1.1//EN" "http://www.w3.org/Graphics/SVG/1.1/DTD/svg11.dtd">
<!-- Generator: Adobe Illustrator 23.0.4, SVG Export Plug-In . SVG Version: 6.00 Build 0)  --><svg xmlns="http://www.w3.org/2000/svg" version="1.1" id="Layer_1" x="0px" y="0px" viewBox="0 0 500 500" style="enable-background:new 0 0 500 500;" xml:space="preserve" width="50" height="50">
<g>
	<circle cx="337.35" cy="403.52" r="36.83"/>
	<polyline points="226.54,293.2 343.57,413.95 348.59,405.23 231.56,284.48  "/>
	<rect x="127.58" y="86.79" style="fill:#FFFFFF;" width="201.84" height="201.84"/>
	<polygon style="fill:#D92029;" points="329.42,288.63 329.42,280.77 135.44,280.77 135.44,94.65 321.56,94.65 321.56,288.63 329.42,288.63    329.42,280.77 329.42,288.63 337.27,288.63 337.27,78.94 119.72,78.94 119.72,296.49 337.27,296.49 337.27,288.63  "/>
	<path style="fill:#D92029;" d="M227.03,148.87l17.92,52.18h-36.84l18.52-52.18H227.03z M211.1,113.83l-53.97,142.19h31.67l11.15-31.66   h53.17l10.75,31.66h32.46l-53.17-142.19H211.1z"/>
</g>
</svg>