<?xml version="1.0" encoding="UTF-8" standalone="no"?>
<!-- Generator: Adobe Illustrator 13.0.0, SVG Export Plug-In . SVG Version: 6.00 Build 14948)  -->

<svg
   xmlns:dc="http://purl.org/dc/elements/1.1/"
   xmlns:cc="http://creativecommons.org/ns#"
   xmlns:rdf="http://www.w3.org/1999/02/22-rdf-syntax-ns#"
   xmlns:svg="http://www.w3.org/2000/svg"
   xmlns="http://www.w3.org/2000/svg"
   xmlns:sodipodi="http://sodipodi.sourceforge.net/DTD/sodipodi-0.dtd"
   xmlns:inkscape="http://www.inkscape.org/namespaces/inkscape"
   version="1.1"
   id="Foreground"
   x="0px"
   y="0px"
   width="420.487"
   height="428"
   viewBox="0 0 420.487 428"
   enable-background="new 0 0 420.487 597.04"
   xml:space="preserve"
   sodipodi:docname="battery_disposal.svg"
   inkscape:version="0.92.5 (2060ec1f9f, 2020-04-08)"><metadata
   id="metadata9"><rdf:RDF><cc:Work
       rdf:about=""><dc:format>image/svg+xml</dc:format><dc:type
         rdf:resource="http://purl.org/dc/dcmitype/StillImage" /><dc:title></dc:title></cc:Work></rdf:RDF></metadata><defs
   id="defs7" /><sodipodi:namedview
   pagecolor="#ffffff"
   bordercolor="#666666"
   borderopacity="1"
   objecttolerance="10"
   gridtolerance="10"
   guidetolerance="10"
   inkscape:pageopacity="0"
   inkscape:pageshadow="2"
   inkscape:window-width="2560"
   inkscape:window-height="1377"
   id="namedview5"
   showgrid="false"
   inkscape:zoom="1.5811336"
   inkscape:cx="95.718759"
   inkscape:cy="311.03165"
   inkscape:window-x="1672"
   inkscape:window-y="-8"
   inkscape:window-maximized="1"
   inkscape:current-layer="Foreground" />
<path
   d="M 236.379,49.18 H 201.38 v 5.502 h 34.999 z M 136.377,66.261 c -5.415,2.942 -9.624,6.535 -11.948,10.919 h 11.948 z m 181.711,52.358 -13.185,13.43 -0.637,6.83 h 15.825 v -20.26 z m -119,107.311 -68.126,-71.864 11.168,129.826 z m 13.475,0.177 65.129,68.592 13.516,-145.03 h -1.333 v -2.314 z m -82.916,-87.324 76.208,80.26 45.077,-45.87 H 187.38 v -24 h 73.501 v 13.875 l 28.994,-29.504 v -25.715 h 5.232 l 1.691,-18.151 H 125.423 Z M 313.64,346.767 c 0.314,1.874 0.478,3.799 0.478,5.763 0,19.089 -15.474,34.562 -34.562,34.562 -13.255,0 -24.768,-7.461 -30.566,-18.413 h -84.52 v 18.055 h -22.237 v -18.101 c -2.604,-0.366 -5.102,-2.842 -5.325,-5.439 L 132.16,308.007 14.359,428 7.317,421.08 131.055,295.162 117.716,140.093 0,15.918 V 2.243 L 116.403,124.835 113.336,89.181 H 98.88 v -12 h 12.719 c 0.219,-0.674 0.509,-1.462 0.89,-2.342 4.229,-9.775 12.964,-16.763 23.889,-21.734 v -7.931 h 20.505 v 1.227 c 10.683,-2.455 21.978,-3.79 32.499,-4.468 v -4.752 h 58.999 V 66.682 H 189.382 V 54.22 c -10.451,0.781 -21.987,2.208 -32.499,4.709 V 77.181 H 296.327 C 290.855,64.269 269.578,58.223 248.38,55.482 V 43.263 c 21.275,2.637 43.143,8.586 54.121,21.438 2.929,-3.729 7.48,-6.125 12.59,-6.125 8.837,0 16,7.163 16,16 0,8.836 -7.163,16 -16,16 -2.2,0 -4.297,-0.444 -6.205,-1.248 l -1.725,18.5 h 7.986 L 420.487,0.632 v 13.682 l -91.805,93.513 h 1.911 v 41.842 h -27.331 l -14.594,156.588 107.955,113.695 -7.162,6.797 z m -68.648,5.763 c 0,-17.718 13.331,-32.322 30.51,-34.328 l 0.99,-10.621 -70.699,-74.578 -62.56,63.724 5.157,59.953 h 96.848 c -0.162,-1.361 -0.246,-2.746 -0.246,-4.15 z m 16.588,0 c 0,9.927 8.047,17.975 17.975,17.975 9.927,0 17.975,-8.048 17.975,-17.975 0,-9.928 -8.048,-17.975 -17.975,-17.975 -9.928,0 -17.975,8.047 -17.975,17.975 z m 6.301,0 c 0,-6.447 5.227,-11.674 11.674,-11.674 6.447,0 11.674,5.227 11.674,11.674 0,6.447 -5.227,11.673 -11.674,11.673 -6.447,0 -11.674,-5.226 -11.674,-11.673 z"
   id="path2"
   inkscape:connector-curvature="0"
   sodipodi:nodetypes="ccccccccccccccccccccccccccccccccccccccccsscccccccccccccccccccccccccccccccccccssscccccccccccccsccccccsssssssssss" />
</svg>