<?xml version="1.0" encoding="UTF-8" standalone="no"?>
<svg
   xmlns="http://www.w3.org/2000/svg"
   xmlns:xlink="http://www.w3.org/1999/xlink"
   version="1.1"
   id="svg2"
   xml:space="preserve"
   viewBox="0 0 336 43" height="43px" width="336px"><defs
     id="defs6"><clipPath
       clipPathUnits="userSpaceOnUse"
       id="clipPath22"><path
         d="M 93,378.033 H 346.58 V 412.12 H 93 Z"
         id="path20" /></clipPath></defs><g
     id="g10"
     transform="matrix(1.3333333,0,0,-1.3333333,0,1056)"><g
       id="g16"
       transform="translate(-96.176316,380.63507)"><g
         id="g18"
         clip-path="url(#clipPath22)"><g
           id="g70"
           transform="translate(114.7715,408.9316)"><path
             d="m 0,0 c 1.249,0.787 2.086,0.566 2.644,0.175 l 17.36,-13.544 c 0.636,-0.484 0.497,-0.878 0.497,-2.825 v -5.364 c 0,-0.726 -0.546,-1.23 -1.717,-1.385 l -25.349,-3.252 c -0.943,-0.112 -1.15,-0.136 -1.884,0.384 l -7.07,5.712 c -0.927,0.739 -1.242,1.037 -1.242,1.976 v 6.198 c 0,0.325 0,1.088 0.775,1.56 z"
             style="fill:none;stroke:#92acbc;stroke-width:0.67500001;stroke-linecap:butt;stroke-linejoin:miter;stroke-miterlimit:10;stroke-dasharray:none;stroke-opacity:1"
             id="path72" /></g><g
           id="g74"
           transform="translate(115.8691,407.79)"><path
             d="m 0,0 c 0.253,0.496 0.821,0.624 1.263,0.285 l 16.183,-12.439 c 0.442,-0.34 0.351,-0.676 -0.201,-0.748 l -24.507,-3.179 c -0.552,-0.071 -0.797,0.276 -0.544,0.772 z"
             style="fill:#c0bebe;fill-opacity:1;fill-rule:nonzero;stroke:none"
             id="path76" /></g><g
           id="g166"
           transform="translate(99.4038,397.9648)"><path
             d="m 0,0 c -0.234,-0.151 -0.239,-0.403 -0.01,-0.563 l 7.311,-5.071 c 0.229,-0.157 0.521,-0.086 0.65,0.16 l 8.113,15.493 c 0.129,0.247 0.043,0.326 -0.191,0.174 z"
             style="fill:#dbdcde;fill-opacity:1;fill-rule:nonzero;stroke:none"
             id="path168" /></g><g
           id="g258"
           transform="translate(133.2773,394.3076)"><path
             d="M 0,0 C 0.552,0.071 1.004,-0.326 1.004,-0.883 V -6.347 C 1.004,-6.904 0.552,-7.418 0,-7.488 l -24.7,-3.182 c -0.552,-0.071 -1.004,0.327 -1.004,0.883 v 5.45 c 0,0.557 0.452,1.071 1.004,1.144 z"
             style="fill:#005797;fill-opacity:1;fill-rule:nonzero;stroke:none"
             id="path260" /></g><g
           id="g350"
           transform="translate(106.9443,390.4189)"><path
             d="m 0,0 c 0,0.557 -0.368,1.281 -0.818,1.608 l -6.528,4.756 c -0.45,0.327 -0.818,0.14 -0.818,-0.416 V 0.907 c 0,-0.556 0.356,-1.296 0.791,-1.644 l 6.582,-5.261 C -0.356,-6.346 0,-6.175 0,-5.618 Z"
             style="fill:#92acbc;fill-opacity:1;fill-rule:nonzero;stroke:none"
             id="path352" /></g><g
           id="g572"
           transform="translate(237.5513,397.9209)"><path
             d="m 0,0 c -0.16,2.463 -1.727,3.646 -4.383,3.646 -2.944,0 -4.768,-3.072 -4.768,-6.719 0,-3.678 1.824,-6.781 4.768,-6.781 2.495,0 4.223,1.536 4.383,3.742 h 2.079 c -0.511,-3.678 -2.623,-5.503 -6.271,-5.503 -4.799,0 -7.038,4.128 -7.038,8.511 0,4.351 2.4,8.51 7.166,8.51 3.296,0 5.984,-1.982 6.143,-5.406 z"
             style="fill:#676666;fill-opacity:1;fill-rule:nonzero;stroke:none"
             id="path574" /></g><g
           id="g576"
           transform="translate(246.5127,388.0664)"><path
             d="M 0,0 C 4.191,0 4.99,3.454 4.799,6.813 2.08,6.719 -3.616,7.229 -3.616,3.199 -3.616,1.022 -1.951,0 0,0 m 4.799,10.046 c -0.193,2.624 -1.536,3.456 -3.808,3.456 -2.016,0 -3.679,-0.608 -3.935,-2.784 h -2.047 c 0.479,3.296 2.943,4.543 6.014,4.543 3.552,0 5.76,-1.632 5.695,-5.311 V 2.335 C 6.687,1.088 6.815,-0.192 6.879,-1.28 H 4.895 L 4.831,1.088 H 4.767 L 4.67,0.864 C 3.967,-0.479 1.823,-1.76 -0.352,-1.76 c -2.976,0 -5.344,1.823 -5.344,4.959 0,2.175 1.313,3.839 3.232,4.64 2.144,0.927 4.927,0.605 7.263,0.737 z"
             style="fill:#676666;fill-opacity:1;fill-rule:nonzero;stroke:none"
             id="path578" /></g><g
           id="g580"
           transform="translate(262.6357,388.0664)"><path
             d="m 0,0 c 3.679,0 4.606,4.063 4.606,7.038 0,3.072 -1.247,6.464 -4.894,6.464 -3.743,0 -5.183,-3.106 -5.183,-6.367 C -5.471,3.486 -4.192,0 0,0 m -5.471,-7.424 h -1.921 v 18.589 c 0.031,1.248 -0.095,2.527 -0.16,3.616 h 1.984 l 0.097,-2.368 0.063,-0.063 c 1.12,1.886 3.359,2.911 5.503,2.911 4.767,0 6.592,-4.288 6.592,-8.448 0,-4.03 -1.825,-8.573 -6.496,-8.573 -2.335,0 -4.287,1.056 -5.599,2.975 h -0.063 z"
             style="fill:#676666;fill-opacity:1;fill-rule:nonzero;stroke:none"
             id="path582" /></g><g
           id="g584"
           transform="translate(276.9243,403.3281)"><path
             d="m 0,0 c 3.04,0 5.599,-1.056 5.856,-4.446 h -2.08 c -0.193,2.014 -1.984,2.685 -3.968,2.685 -1.793,0 -3.616,-0.703 -3.616,-2.592 0,-2.368 3.104,-2.142 7.455,-3.678 1.665,-0.575 2.719,-2.016 2.719,-3.744 0,-3.615 -3.359,-5.247 -6.75,-5.247 -2.783,0 -5.983,1.312 -6.047,4.864 h 2.08 c 0.16,-2.401 2.271,-3.104 4.447,-3.104 2.048,0 4.192,0.958 4.192,3.199 0,2.303 -2.529,2.688 -5.088,3.263 -2.528,0.608 -5.087,1.345 -5.087,4.321 C -5.887,-1.152 -2.815,0 0,0"
             style="fill:#676666;fill-opacity:1;fill-rule:nonzero;stroke:none"
             id="path586" /></g><g
           id="g588"
           transform="translate(286.8867,401.0879)"><path
             d="M 0,0 H -3.199 V 1.76 H 0 V 5.183 L 1.92,6.016 V 1.76 H 5.567 V 0 H 1.92 v -10.75 c -0.031,-1.473 0.736,-2.271 2.208,-2.271 0.576,0 1.152,0.031 1.663,0.191 v -1.663 c -0.607,-0.16 -1.312,-0.288 -1.951,-0.288 -4.063,0 -3.84,2.591 -3.84,4.765 z"
             style="fill:#676666;fill-opacity:1;fill-rule:nonzero;stroke:none"
             id="path590" /></g><g
           id="g592"
           transform="translate(300.7285,401.5684)"><path
             d="m 0,0 c -3.872,0 -5.408,-3.776 -5.408,-6.751 0,-2.976 1.536,-6.752 5.408,-6.752 3.871,0 5.407,3.776 5.407,6.752 C 5.407,-3.776 3.871,0 0,0 m 7.486,-6.751 c 0,-4.225 -2.367,-8.512 -7.486,-8.512 -5.12,0 -7.487,4.287 -7.487,8.512 0,4.223 2.367,8.511 7.487,8.511 5.119,0 7.486,-4.288 7.486,-8.511"
             style="fill:#676666;fill-opacity:1;fill-rule:nonzero;stroke:none"
             id="path594" /></g><g
           id="g596"
           transform="translate(312.0352,386.7861)"><path
             d="m 0,0 h -1.921 v 12.445 c 0,1.248 -0.096,2.529 -0.159,3.617 h 1.982 L 0,13.693 0.063,13.63 c 1.121,1.983 2.943,2.911 5.023,2.911 5.248,0 5.664,-4.639 5.664,-6.495 V 0 H 8.829 v 10.366 c 0,2.784 -1.599,4.415 -4.224,4.415 C 1.438,14.781 0,12.126 0,9.247 Z"
             style="fill:#676666;fill-opacity:1;fill-rule:nonzero;stroke:none"
             id="path598" /></g><g
           id="g600"
           transform="translate(336.6992,396.1279)"><path
             d="M 0,0 C -0.224,3.104 -1.888,5.439 -5.215,5.439 -8.35,5.439 -10.014,2.815 -10.27,0 Z m -10.334,-1.76 c 0.064,-3.422 1.631,-6.302 5.567,-6.302 2.271,0 4.16,1.631 4.639,3.839 h 2.017 c -0.993,-3.839 -3.393,-5.598 -7.264,-5.598 -4.799,0 -7.039,4.127 -7.039,8.51 0,4.35 2.4,8.511 7.167,8.511 5.375,0 7.326,-3.936 7.326,-8.96 z"
             style="fill:#676666;fill-opacity:1;fill-rule:nonzero;stroke:none"
             id="path602" /></g><g
           id="g604"
           transform="translate(345.7314,400.7939)"><path
             d="M 0,0 -0.157,2.516 C -0.173,2.847 -0.173,3.254 -0.188,3.711 H -0.235 C -0.346,3.333 -0.487,2.83 -0.599,2.438 L -1.368,0.063 h -0.88 l -0.771,2.438 c -0.08,0.313 -0.205,0.832 -0.298,1.21 h -0.047 c 0,-0.393 -0.018,-0.802 -0.032,-1.195 L -3.554,0 h -0.818 l 0.314,4.277 h 1.276 l 0.737,-2.09 c 0.11,-0.331 0.174,-0.646 0.284,-1.085 h 0.015 c 0.11,0.377 0.205,0.754 0.3,1.052 l 0.738,2.123 H 0.519 L 0.849,0 Z M -4.622,4.277 V 3.569 H -5.991 V 0 H -6.84 v 3.569 h -1.35 v 0.708 z"
             style="fill:#676666;fill-opacity:1;fill-rule:nonzero;stroke:none"
             id="path606" /></g><g
           id="g608"
           transform="translate(147.3462,395.7598)"><path
             d="M 0,0 H 2.025 C 3.14,0 4.938,0 5.393,2.208 5.826,4.21 4.233,4.323 2.913,4.323 H 0.91 Z m -3.027,7.372 h 7.556 c 1.274,0 2.935,0 4.118,-0.842 C 9.854,5.688 10.468,4.21 10.013,2.07 9.399,-0.819 7.282,-2.071 6.577,-2.412 5.143,-3.118 3.163,-3.118 2.276,-3.118 l -2.959,-0.023 -1.251,-5.917 h -4.574 z"
             style="fill:#005797;fill-opacity:1;fill-rule:nonzero;stroke:none"
             id="path610" /></g><g
           id="g612"
           transform="translate(165.2314,393.0283)"><path
             d="M 0,0 -0.66,6.896 H -0.728 L -4.46,0 Z M -2.571,10.104 H 2.981 L 5.985,-6.326 H 0.842 l -0.432,3.3 h -6.577 l -1.821,-3.3 h -4.551 z"
             style="fill:#005797;fill-opacity:1;fill-rule:nonzero;stroke:none"
             id="path614" /></g><g
           id="g616"
           transform="translate(176.6079,391.9365)"><path
             d="m 0,0 c -0.114,-0.66 -0.478,-2.55 2.23,-2.55 0.387,0 2.435,0 2.845,1.866 C 5.234,0.091 5.029,0.613 3.982,0.91 l -3.8,1.047 c -1.07,0.296 -3.846,1.069 -3.118,4.506 0.569,2.663 3.095,5.142 8.011,5.142 6.417,0 5.962,-3.481 5.598,-5.233 H 6.053 C 6.167,6.873 6.576,8.647 4.392,8.647 3.072,8.647 2.071,7.896 1.866,6.918 1.593,5.712 2.526,5.416 3.163,5.233 L 6.053,4.437 C 8.124,3.869 10.582,3.186 9.831,-0.296 9.057,-3.96 5.576,-5.599 1.456,-5.599 c -1.706,0 -4.415,0.274 -5.553,1.957 -0.932,1.321 -0.614,2.936 -0.477,3.642 z"
             style="fill:#005797;fill-opacity:1;fill-rule:nonzero;stroke:none"
             id="path618" /></g><g
           id="g620"
           transform="translate(199.8174,397.9668)"><path
             d="m 0,0 c 0.159,1.661 -0.888,2.276 -2.185,2.276 -2.754,0 -4.119,-2.526 -4.756,-5.53 -0.228,-1.002 -1.07,-5.143 2.458,-5.143 2.412,0 3.027,1.752 3.254,2.389 h 4.734 c -1.116,-5.143 -6.441,-5.575 -8.58,-5.575 -1.593,0 -4.346,0.273 -5.78,2.184 -1.388,1.912 -1.138,4.529 -0.774,6.236 0.478,2.253 1.479,4.506 3.391,6.258 2.093,1.911 4.369,2.412 6.759,2.412 2.662,0 4.551,-0.637 5.552,-2.002 C 5.098,2.094 4.802,0.615 4.688,0 Z"
             style="fill:#005797;fill-opacity:1;fill-rule:nonzero;stroke:none"
             id="path622" /></g><g
           id="g624"
           transform="translate(212.4312,389.6602)"><path
             d="M 0,0 C 3.253,0 4.437,3.005 4.915,5.28 5.393,7.578 5.097,8.717 4.756,9.444 4.277,10.355 3.277,10.629 2.275,10.629 -0.729,10.629 -2.094,8.033 -2.708,5.212 -3.255,2.595 -3.027,0 0,0 m -3.778,11.651 c 2.526,2.094 5.712,2.277 6.918,2.277 6.554,0 7.328,-4.711 6.464,-8.716 -1.389,-6.555 -6.464,-8.557 -10.379,-8.557 -4.369,0 -7.919,2.412 -6.621,8.534 0.227,1.092 1.115,4.37 3.618,6.462"
             style="fill:#005797;fill-opacity:1;fill-rule:nonzero;stroke:none"
             id="path626" /></g></g></g></g></svg>