<?xml version="1.0" encoding="UTF-8" standalone="no"?>
<svg
   xmlns:dc="http://purl.org/dc/elements/1.1/"
   xmlns:cc="http://creativecommons.org/ns#"
   xmlns:rdf="http://www.w3.org/1999/02/22-rdf-syntax-ns#"
   xmlns:svg="http://www.w3.org/2000/svg"
   xmlns="http://www.w3.org/2000/svg"
   xmlns:sodipodi="http://sodipodi.sourceforge.net/DTD/sodipodi-0.dtd"
   xmlns:inkscape="http://www.inkscape.org/namespaces/inkscape"
   version="1.1"
   id="svg2"
   xml:space="preserve"
   viewBox="0 0 55 41"
   height="41"
   width="55"
   sodipodi:docname="capstone_logo_only.svg"
   inkscape:version="0.92.5 (2060ec1f9f, 2020-04-08)"><metadata
     id="metadata49"><rdf:RDF><cc:Work
         rdf:about=""><dc:format>image/svg+xml</dc:format><dc:type
           rdf:resource="http://purl.org/dc/dcmitype/StillImage" /><dc:title></dc:title></cc:Work></rdf:RDF></metadata><sodipodi:namedview
     pagecolor="#ffffff"
     bordercolor="#666666"
     borderopacity="1"
     objecttolerance="10"
     gridtolerance="10"
     guidetolerance="10"
     inkscape:pageopacity="0"
     inkscape:pageshadow="2"
     inkscape:window-width="1680"
     inkscape:window-height="987"
     id="namedview47"
     showgrid="true"
     inkscape:zoom="2.4159482"
     inkscape:cx="-49.157845"
     inkscape:cy="54.670071"
     inkscape:window-x="-8"
     inkscape:window-y="190"
     inkscape:window-maximized="1"
     inkscape:current-layer="svg2"
     inkscape:snap-global="false"><inkscape:grid
       type="xygrid"
       id="grid985" /></sodipodi:namedview><defs
     id="defs6"><clipPath
       clipPathUnits="userSpaceOnUse"
       id="clipPath22"><path
         d="M 93,378.033 H 346.58 V 412.12 H 93 Z"
         id="path20"
         inkscape:connector-curvature="0" /></clipPath></defs><g
     id="g983"
     transform="translate(-1.9432124,-0.708746)"><g
       id="g70"
       transform="matrix(1.3333333,0,0,-1.3333333,26.863163,4.0722703)"><path
         d="m 0,0 c 1.249,0.787 2.086,0.566 2.644,0.175 l 17.36,-13.544 c 0.636,-0.484 0.497,-0.878 0.497,-2.825 v -5.364 c 0,-0.726 -0.546,-1.23 -1.717,-1.385 l -25.349,-3.252 c -0.943,-0.112 -1.15,-0.136 -1.884,0.384 l -7.07,5.712 c -0.927,0.739 -1.242,1.037 -1.242,1.976 v 6.198 c 0,0.325 0,1.088 0.775,1.56 z"
         style="fill:none;stroke:#92acbc;stroke-width:0.67500001;stroke-linecap:butt;stroke-linejoin:miter;stroke-miterlimit:10;stroke-dasharray:none;stroke-opacity:1"
         id="path72"
         inkscape:connector-curvature="0" /></g><g
       id="g74"
       transform="matrix(1.3333333,0,0,-1.3333333,28.326629,5.5944036)"><path
         d="m 0,0 c 0.253,0.496 0.821,0.624 1.263,0.285 l 16.183,-12.439 c 0.442,-0.34 0.351,-0.676 -0.201,-0.748 l -24.507,-3.179 c -0.552,-0.071 -0.797,0.276 -0.544,0.772 z"
         style="fill:#c0bebe;fill-opacity:1;fill-rule:nonzero;stroke:none"
         id="path76"
         inkscape:connector-curvature="0" /></g><g
       id="g166"
       transform="matrix(1.3333333,0,0,-1.3333333,6.3728967,18.69467)"><path
         d="m 0,0 c -0.234,-0.151 -0.239,-0.403 -0.01,-0.563 l 7.311,-5.071 c 0.229,-0.157 0.521,-0.086 0.65,0.16 l 8.113,15.493 c 0.129,0.247 0.043,0.326 -0.191,0.174 z"
         style="fill:#dbdcde;fill-opacity:1;fill-rule:nonzero;stroke:none"
         id="path168"
         inkscape:connector-curvature="0" /></g><g
       id="g258"
       transform="matrix(1.3333333,0,0,-1.3333333,51.537562,23.570936)"><path
         d="M 0,0 C 0.552,0.071 1.004,-0.326 1.004,-0.883 V -6.347 C 1.004,-6.904 0.552,-7.418 0,-7.488 l -24.7,-3.182 c -0.552,-0.071 -1.004,0.327 -1.004,0.883 v 5.45 c 0,0.557 0.452,1.071 1.004,1.144 z"
         style="fill:#005797;fill-opacity:1;fill-rule:nonzero;stroke:none"
         id="path260"
         inkscape:connector-curvature="0" /></g><g
       id="g350"
       transform="matrix(1.3333333,0,0,-1.3333333,16.426896,28.75587)"><path
         d="m 0,0 c 0,0.557 -0.368,1.281 -0.818,1.608 l -6.528,4.756 c -0.45,0.327 -0.818,0.14 -0.818,-0.416 V 0.907 c 0,-0.556 0.356,-1.296 0.791,-1.644 l 6.582,-5.261 C -0.356,-6.346 0,-6.175 0,-5.618 Z"
         style="fill:#92acbc;fill-opacity:1;fill-rule:nonzero;stroke:none"
         id="path352"
         inkscape:connector-curvature="0" /></g></g></svg>