<?xml version="1.0" encoding="UTF-8" standalone="no"?>
<svg
   xmlns="http://www.w3.org/2000/svg"
   height="31"
   width="216"
   viewBox="0 0 216 31"
   xml:space="preserve"
   id="svg2"
   version="1.1"><text
     y="28.859144"
     x="36.902264"
     id="text14"
     style="font-variant:normal;font-weight:normal;font-stretch:normal;font-size:35.73186493px;font-family:Arial;-inkscape-font-specification:HelveticaNeueLTPro-Roman;writing-mode:lr-tb;fill:#165787;fill-opacity:1;fill-rule:nonzero;stroke:none;stroke-width:0.99502838"
     transform="scale(1.0049964,0.99502843)"><tspan
       style="stroke-width:0.99502838"
       id="tspan12"
       y="28.859144"
       x="36.902264 59.66346 80.67379 103.82805 127.69697 149.20753 166.64467 185.86842">SPARKvue</tspan></text>
<text
     y="13.051427"
     x="204.8502"
     id="text18"
     style="font-variant:normal;font-weight:bold;font-stretch:normal;font-size:10.29516029px;font-family:Arial;-inkscape-font-specification:HelveticaNeueLTPro-Bd;writing-mode:lr-tb;fill:#165787;fill-opacity:1;fill-rule:nonzero;stroke:none;stroke-width:0.99502838"
     transform="scale(1.0049964,0.99502843)"><tspan
       style="stroke-width:0.99502838"
       id="tspan16"
       y="13.051427"
       x="204.8502">®</tspan></text>
<path
     d="m 25.354162,2.5731608 c 1.875,0 3.394,1.5039339 3.394,3.3613267 V 25.109395 c 0,1.856403 -1.519,3.361327 -3.394,3.361327 H 5.9851622 c -1.874,0 -3.394,-1.504924 -3.394,-3.361327 V 5.9344875 c 0,-1.8573928 1.52,-3.3613267 3.394,-3.3613267 z"
     style="fill:none;stroke:#165787;stroke-width:0.99502838;stroke-linecap:butt;stroke-linejoin:miter;stroke-miterlimit:10;stroke-dasharray:none;stroke-opacity:1"
     id="path30" /><path
     d="m 24.179362,11.325382 c 0,1.381164 -1.15,2.505896 -2.569,2.505896 -1.42,0 -2.567,-1.124732 -2.567,-2.505896 0,-1.380174 1.147,-2.4999555 2.567,-2.4999555 1.419,0 2.569,1.1197815 2.569,2.4999555"
     style="fill:#165787;fill-opacity:1;fill-rule:nonzero;stroke:none;stroke-width:0.99502838"
     id="path34" /><path
     d="m 24.235962,19.663154 c 0,1.173247 -0.975,2.120755 -2.174,2.120755 -1.201,0 -2.175,-0.947508 -2.175,-2.120755 0,-1.164335 0.974,-2.111843 2.175,-2.111843 1.199,0 2.174,0.947508 2.174,2.111843"
     style="fill:#165787;fill-opacity:1;fill-rule:nonzero;stroke:none;stroke-width:0.99502838"
     id="path38" /><path
     d="m 16.710062,23.405464 c 0,0.994043 -0.822,1.795019 -1.841,1.795019 -1.017,0 -1.845,-0.800976 -1.845,-1.795019 0,-0.99107 0.828,-1.797987 1.845,-1.797987 1.019,0 1.841,0.806917 1.841,1.797987"
     style="fill:#165787;fill-opacity:1;fill-rule:nonzero;stroke:none;stroke-width:0.99502838"
     id="path42" /><path
     d="m 10.301862,17.041518 c 0,0.816818 -0.6809998,1.472252 -1.5169998,1.472252 -0.837,0 -1.515,-0.655434 -1.515,-1.472252 0,-0.813848 0.678,-1.476212 1.515,-1.476212 0.836,0 1.5169998,0.662364 1.5169998,1.476212"
     style="fill:#165787;fill-opacity:1;fill-rule:nonzero;stroke:none;stroke-width:0.99502838"
     id="path46" /><path
     d="m 16.033862,9.529374 c 0,1.592051 -1.325,2.889058 -2.964,2.889058 -1.635,0 -2.968,-1.297007 -2.968,-2.889058 0,-1.597001 1.333,-2.8900474 2.968,-2.8900474 1.639,0 2.964,1.2930464 2.964,2.8900474"
     style="fill:#165787;fill-opacity:1;fill-rule:nonzero;stroke:none;stroke-width:0.99502838"
     id="path50" /></svg>