<?xml version="1.0" encoding="UTF-8" standalone="no"?>
<svg
   xmlns:dc="http://purl.org/dc/elements/1.1/"
   xmlns:cc="http://creativecommons.org/ns#"
   xmlns:rdf="http://www.w3.org/1999/02/22-rdf-syntax-ns#"
   xmlns:svg="http://www.w3.org/2000/svg"
   xmlns="http://www.w3.org/2000/svg"
   xmlns:sodipodi="http://sodipodi.sourceforge.net/DTD/sodipodi-0.dtd"
   xmlns:inkscape="http://www.inkscape.org/namespaces/inkscape"
   id="Layer_1"
   viewBox="0 0 46 9.79"
   height="18"
   width="66"
   version="1.1"
   sodipodi:docname="pasco_logo_2017.svg"
   inkscape:export-filename="C:\Users\bpuglies\Documents\OxygenXMLAuthor\oxygen-framework-new\publishing\css\images\pasco_logo_2017.png"
   inkscape:export-xdpi="200"
   inkscape:export-ydpi="200"
   inkscape:version="1.0.1 (3bc2e813f5, 2020-09-07)">
  <metadata
     id="metadata21">
    <rdf:RDF>
      <cc:Work
         rdf:about="">
        <dc:format>image/svg+xml</dc:format>
        <dc:type
           rdf:resource="http://purl.org/dc/dcmitype/StillImage" />
      </cc:Work>
    </rdf:RDF>
  </metadata>
  <sodipodi:namedview
     pagecolor="#ffffff"
     bordercolor="#666666"
     borderopacity="1"
     objecttolerance="10"
     gridtolerance="10"
     guidetolerance="10"
     inkscape:pageopacity="0"
     inkscape:pageshadow="2"
     inkscape:window-width="1920"
     inkscape:window-height="1002"
     id="namedview19"
     showgrid="false"
     inkscape:zoom="17.727273"
     inkscape:cx="33"
     inkscape:cy="9"
     inkscape:window-x="-8"
     inkscape:window-y="-8"
     inkscape:window-maximized="1"
     inkscape:current-layer="Layer_1" />
  <defs
     id="defs4">
    <style
       id="style2">.cls-1{fill:#000000;}</style>
  </defs>
  <path
     class="cls-1"
     d="m5.49.1H1.86L0,9.78h2.43l.63-3.26h2.09c1.7,0,3.5-1.22,3.5-3.47C8.65,1.12,7.55.1,5.49.1Zm-1.6,2.13h1.38c.65,0,.97.28.97.86,0,.85-.42,1.29-1.2,1.29h-1.55l.41-2.15Z"
     id="path6" />
  <path
     class="cls-1"
     d="m13.8.1h-2.31l-5.27,9.69h2.61l1.06-2.03h2.71l.27,2.03h2.42L13.8.1Zm-1.44,5.59h-1.46l1.19-2.38.27,2.38Z"
     id="path8" />
  <path
     class="cls-1"
     d="m23.71,3.5v-.29c0-1.92-1.22-3.06-3.26-3.06-1.71,0-3.43.92-3.43,2.96s1.66,2.44,2.65,2.72c1.26.37,1.36.63,1.36.93,0,.64-.63.93-1.22.93-1,0-1.42-.36-1.42-1.21v-.38h-2.23v.29c0,2.19,1.23,3.35,3.57,3.35,1.76,0,3.53-.97,3.53-3.13,0-1.55-.74-2.32-2.65-2.76-1.21-.27-1.35-.63-1.35-.88,0-.72.84-.77,1.1-.77,1.01,0,1.13.53,1.13.93v.37h2.23Z"
     id="path10" />
  <path
     class="cls-1"
     d="m29.2,2.24c.73,0,1.14.47,1.14,1.33v.28h2.33v-.41c0-2.06-1.37-3.39-3.49-3.39-3.02,0-4.65,2.86-4.65,5.54s1.43,4.13,3.84,4.13c1.97,0,3.22-1.12,3.94-3.54l.11-.37h-2.38l-.04.24c-.16.85-.84,1.49-1.6,1.49-.95,0-1.52-.73-1.52-1.95,0-.94.22-1.73.67-2.41.43-.64.97-.96,1.66-.96Z"
     id="path12" />
  <path
     class="cls-1"
     d="m37.91.15c-2.63,0-4.61,2.36-4.61,5.5,0,2.57,1.42,4.1,3.8,4.1,3.17,0,4.61-2.9,4.61-5.6,0-2.5-1.42-3.99-3.8-3.99Zm-.79,7.43c-.95,0-1.51-.72-1.51-1.93,0-1.65.79-3.33,2.3-3.33,1.29,0,1.49,1.22,1.49,1.94,0,1.38-.71,3.32-2.27,3.32Z"
     id="path14" />
  <path
     class="cls-1"
     d="m44.85,0c.31,0,.58.11.81.33.23.22.34.49.34.81s-.11.59-.33.82-.5.34-.82.34-.59-.11-.82-.34c-.23-.23-.34-.5-.34-.82s.11-.58.34-.81c.23-.22.5-.34.82-.34Zm-.95,1.14c0,.27.09.51.27.7.18.19.41.29.68.29s.49-.09.67-.28.27-.42.27-.7-.09-.51-.27-.69-.41-.28-.67-.28-.5.09-.68.28c-.18.19-.27.42-.27.69Zm1.03-.67c.31,0,.46.13.46.38,0,.21-.12.33-.35.37l.38.59h-.22l-.37-.58h-.22v.58h-.21V.48h.53Zm-.08.6c.13,0,.21-.02.26-.05.05-.03.07-.09.07-.17,0-.14-.09-.21-.28-.21h-.29v.43h.24Z"
     id="path16" />
</svg>
